<?xml version="1.0" standalone="no"?>
<!DOCTYPE svg PUBLIC "-//W3C//DTD SVG 20010904//EN"
 "http://www.w3.org/TR/2001/REC-SVG-20010904/DTD/svg10.dtd">
<svg version="1.0" xmlns="http://www.w3.org/2000/svg"
 width="1280.000000pt" height="1280.000000pt" viewBox="0 0 1280.000000 1280.000000"
 preserveAspectRatio="xMidYMid meet">
<metadata>
Created by potrace 1.15, written by Peter Selinger 2001-2017
</metadata>
<g transform="translate(0.000000,1280.000000) scale(0.100000,-0.100000)"
fill="#000000" stroke="none">
<path d="M6343 12781 c-17 -11 -37 -29 -42 -40 -8 -14 -11 -441 -11 -1390 l0
-1369 -62 -6 c-334 -28 -485 -51 -703 -107 -797 -203 -1499 -674 -1989 -1334
-411 -553 -643 -1172 -699 -1868 l-12 -147 -1345 0 c-757 0 -1362 -4 -1383 -9
-101 -24 -129 -139 -49 -201 24 -20 48 -20 1403 -20 l1379 0 0 -52 c0 -62 24
-305 40 -400 182 -1141 901 -2122 1936 -2641 438 -220 852 -330 1407 -373 l77
-6 0 -1373 c0 -1349 0 -1373 20 -1397 66 -85 189 -46 205 65 3 23 5 641 3
1374 l-3 1332 85 6 c266 19 443 45 665 99 872 213 1633 751 2134 1509 350 529
554 1159 584 1802 l2 50 1376 5 c1314 5 1378 6 1397 23 70 64 44 171 -49 197
-21 6 -529 10 -1379 10 l-1345 0 -2 57 c-12 284 -77 638 -170 928 -427 1326
-1612 2297 -2988 2449 -77 9 -178 18 -225 21 l-85 6 3 1332 c2 733 0 1351 -3
1375 -13 90 -101 138 -172 93z m-55 -4646 l-3 -1615 -1613 -3 -1612 -2 0 51
c0 144 45 453 97 658 309 1233 1313 2197 2558 2455 168 35 384 63 533 69 l42
2 -2 -1615z m399 1604 c576 -47 1122 -240 1602 -566 185 -126 309 -229 487
-407 290 -291 482 -560 653 -918 188 -391 307 -854 323 -1256 l3 -72 -1618 0
c-889 0 -1617 2 -1617 5 0 3 0 730 0 1615 0 1588 0 1610 19 1610 11 0 78 -5
148 -11z m-397 -5069 l0 -1620 -22 0 c-38 0 -248 20 -328 31 -828 113 -1594
544 -2129 1199 -443 542 -709 1216 -747 1895 l-7 115 1616 0 1617 0 0 -1620z
m3462 1545 c-7 -181 -46 -435 -97 -635 -150 -593 -448 -1115 -885 -1550 -511
-510 -1151 -833 -1870 -944 -106 -16 -370 -40 -376 -33 -3 2 -6 2850 -4 3232
0 3 728 4 1618 3 l1617 -3 -3 -70z"/>
</g>
</svg>
