<?xml version="1.0" encoding="UTF-8" standalone="no"?>
<!-- Created with Inkscape (http://www.inkscape.org/) -->

<svg
   xmlns:dc="http://purl.org/dc/elements/1.1/"
   xmlns:cc="http://creativecommons.org/ns#"
   xmlns:rdf="http://www.w3.org/1999/02/22-rdf-syntax-ns#"
   xmlns:svg="http://www.w3.org/2000/svg"
   xmlns="http://www.w3.org/2000/svg"
   xmlns:sodipodi="http://sodipodi.sourceforge.net/DTD/sodipodi-0.dtd"
   xmlns:inkscape="http://www.inkscape.org/namespaces/inkscape"
   version="1.1"
   id="svg3713"
   width="533.33331"
   height="402.66666"
   viewBox="0 0 533.33331 402.66666"
   sodipodi:docname="btn-gun.svg"
   inkscape:version="0.92.4 (5da689c313, 2019-01-14)">
  <metadata
     id="metadata3719">
    <rdf:RDF>
      <cc:Work
         rdf:about="">
        <dc:format>image/svg+xml</dc:format>
        <dc:type
           rdf:resource="http://purl.org/dc/dcmitype/StillImage" />
        <dc:title></dc:title>
      </cc:Work>
    </rdf:RDF>
  </metadata>
  <defs
     id="defs3717" />
  <sodipodi:namedview
     pagecolor="#ffffff"
     bordercolor="#666666"
     borderopacity="1"
     objecttolerance="10"
     gridtolerance="10"
     guidetolerance="10"
     inkscape:pageopacity="0"
     inkscape:pageshadow="2"
     inkscape:window-width="1920"
     inkscape:window-height="1017"
     id="namedview3715"
     showgrid="false"
     inkscape:zoom="0.74456941"
     inkscape:cx="684.23928"
     inkscape:cy="236.13588"
     inkscape:window-x="-8"
     inkscape:window-y="-8"
     inkscape:window-maximized="1"
     inkscape:current-layer="svg3713" />
  <path
     style="fill:#000000;stroke-width:1.33333325"
     d="m 24.945634,298.94634 c -6.35887,-0.43958 -12.05882,-1.29918 -12.66655,-1.91023 -0.60773,-0.61104 1.47574,-5.71104 4.62995,-11.33333 3.15419,-5.62228 9.05933,-17.12234 13.12251,-25.55567 24.72852,-51.3252 26.90857,-55.36509 34.20927,-63.39377 4.03126,-4.43324 10.96863,-10.3066 15.41636,-13.0519 7.33572,-4.52786 9.36059,-5.10629 21.801756,-6.22798 7.54323,-0.68011 15.96496,-1.25675 18.71496,-1.28144 l 5,-0.0449 v 18.15551 18.1555 l 3,-0.80396 c 1.65,-0.44218 4.32682,-0.81217 5.94848,-0.82218 1.63412,-0.0107 5.21188,-2.30435 8.02596,-5.1467 5.46413,-5.519 9.84395,-7.3669 22.35889,-9.43353 26.51974,-4.37925 32.85928,-5.31983 40.66667,-6.03351 15.98073,-1.46084 21.98877,-2.41706 23.69889,-3.77188 0.93439,-0.74025 2.12939,-0.91541 2.65556,-0.38925 0.52616,0.52617 -0.15604,1.57937 -1.51601,2.34045 -1.35998,0.76108 -3.66044,2.57155 -5.11216,4.02327 -1.58903,1.58903 -3.68944,2.36492 -5.27772,1.94957 -1.45101,-0.37944 -5.44555,0.12427 -8.87672,1.11924 -3.43117,0.99504 -9.23851,2.18863 -12.90517,2.65243 -3.66667,0.4638 -8.33255,1.15583 -10.36862,1.53784 l -3.70194,0.69457 3.43882,2.70499 c 4.77662,3.75728 3.09846,4.65209 -1.85557,0.98941 -3.64071,-2.69169 -5.08311,-2.90754 -14.92241,-2.23314 -5.99068,0.41061 -11.47158,1.326 -12.17976,2.03418 -0.7082,0.7082 -1.61743,3.7465 -2.02052,6.75179 -0.56606,4.22023 0.0649,7.09495 2.77188,12.62767 4.63224,9.46796 4.45937,11.64453 -0.54411,6.85089 -3.76648,-3.60852 -7.119,-11.99561 -8.24224,-20.61983 l -0.43415,-3.33333 -1.90952,3.33333 c -1.05024,1.83334 -2.30687,6.03334 -2.79254,9.33334 l -0.88301,6 -0.17816,-5.15551 c -0.16115,-4.66347 -0.46447,-5.07877 -3.17815,-4.35155 -1.65,0.44219 -4.07088,0.81218 -5.37973,0.82219 -1.81257,0.0139 -1.30268,0.96387 2.13948,3.98612 2.48557,2.18236 5.95645,6.08267 7.71306,8.66736 1.76975,2.604 3.96788,4.40868 4.92977,4.04735 0.95475,-0.35864 1.36866,-0.0579 0.91976,0.66848 -1.55064,2.50898 6.48947,4.2575 15.76139,3.42768 9.40195,-0.84146 18.08445,-3.68752 19.82091,-6.49718 0.54894,-0.88821 1.76997,-1.64221 2.7134,-1.67554 0.94341,-0.0333 1.55042,-0.82794 1.34892,-1.76578 -0.2015,-0.93785 0.2258,-1.33918 0.94957,-0.89188 0.72376,0.44731 1.88451,-1.15809 2.57944,-3.56756 1.21323,-4.20645 1.26831,-4.23665 1.38377,-0.75862 0.16571,4.99124 -8.00712,12.94248 -15.67524,15.25024 -3.2789,0.98681 -10.42368,1.7942 -15.87725,1.7942 -11.52417,0 -15.18868,-1.92674 -21.72033,-11.42018 -8.45203,-12.2846 -20.4677,-12.96034 -32.54252,-1.83017 -3.11102,2.86764 -5.9882,4.88209 -6.39374,4.47656 -0.40553,-0.40552 -0.64733,0.35268 -0.53733,1.68489 0.11351,1.37474 -0.56361,2.26379 -1.56577,2.05586 -0.97117,-0.2015 -1.39665,0.23088 -0.94551,0.96085 0.45114,0.72996 -0.22152,3.29483 -1.494814,5.69969 -2.69784,5.09546 -2.89422,5.78584 -4.656982,16.3725 -1.28512,7.71804 -0.81498,23.111 0.91627,30 0.46073,1.83333 1.111162,5.52253 1.445402,8.19821 l 0.60771,4.86488 -30.386492,-0.0656 c -16.71256,-0.0362 -35.5892,-0.42536 -41.94807,-0.86493 z m -0.13285,-6.27146 c -0.44306,-0.44305 -1.59306,-0.49041 -2.55556,-0.1052 -1.06364,0.42563 -0.7477,0.74158 0.80556,0.80555 1.40555,0.0579 2.19305,-0.25724 1.75,-0.70029 z m 6.02777,-1.41081 c -0.91667,-0.36988 -2.41667,-0.36988 -3.33333,0 -0.91667,0.36988 -0.16667,0.67252 1.66666,0.67252 1.83334,0 2.58334,-0.30264 1.66667,-0.67252 z m 8.24698,-3.25667 c -0.40573,-0.65649 0.49772,-1.19362 2.00766,-1.19362 1.50995,0 2.74536,0.71468 2.74536,1.58817 0,0.87349 0.85094,0.42444 1.89098,-0.99791 1.04005,-1.42233 1.60742,-2.86964 1.26084,-3.21622 -0.34658,-0.34658 -1.2243,0.25248 -1.95049,1.33124 -0.98873,1.46877 -1.22168,0.95676 -0.9275,-2.03862 0.21606,-2.2 1.14835,-4.79837 2.07176,-5.77416 0.9234,-0.97578 1.33799,-2.32578 0.92131,-3 -0.41669,-0.67421 -0.27232,-1.97584 0.32082,-2.8925 0.59313,-0.91667 2.02726,-4.66667 3.18694,-8.33334 1.15968,-3.66666 2.72393,-6.54529 3.47611,-6.39693 0.79824,0.15743 1.15641,-1.64663 0.86034,-4.33333 -0.27899,-2.5317 0.0505,-4.60307 0.73215,-4.60307 1.65623,0 5.55181,-11.62101 4.66781,-13.92468 -0.38344,-0.99923 0.54471,-4.25105 2.06255,-7.22627 4.01577,-7.87156 3.40544,-11.35792 -0.73218,-4.18238 -4.37176,7.58158 -11.55681,29.06174 -10.75135,32.14182 0.41159,1.57396 0.0107,2.09606 -1.241,1.61576 -1.017,-0.39025 -1.84909,-0.01 -1.84909,0.84512 0,0.85507 0.6,1.18386 1.33333,0.73063 0.73334,-0.45323 1.33334,-0.21845 1.33334,0.52172 0,0.74017 -0.75,1.82559 -1.66667,2.41203 -1.67743,1.07313 -4.68219,7.83176 -5.95721,13.39958 -0.37785,1.65 -1.16065,3 -1.73956,3 -0.8084,0 -5.30323,10.90166 -5.30323,12.86234 0,0.21302 0.89655,0.0433 1.99234,-0.37723 1.09579,-0.42049 1.66038,-1.30167 1.25464,-1.95815 z m 16.79385,-45.86029 c 0,-0.73333 0.58163,-2.23333 1.2925,-3.33333 0.71088,-1.1 1.2925,-1.4 1.2925,-0.66667 0,0.73333 -0.58162,2.23333 -1.2925,3.33333 -0.71087,1.1 -1.2925,1.4 -1.2925,0.66667 z m -0.70118,36.67689 c -0.4567,-0.73896 -0.19495,-1.34356 0.58166,-1.34356 0.77661,0 1.41202,-0.525 1.41202,-1.16666 0,-2.48518 -6.77917,-1.11336 -8.23629,1.66666 -1.4462,2.75918 -1.4145,2.77076 1.21087,0.44244 2.32895,-2.06544 2.80119,-2.11662 3.46912,-0.37604 0.42524,1.10818 0.19938,2.3695 -0.50193,2.80292 -0.70131,0.43344 -1.2751,1.39551 -1.2751,2.13795 0,0.74243 0.93825,0.41163 2.08501,-0.73513 1.14676,-1.14676 1.71134,-2.68962 1.25464,-3.42858 z m 4.83042,1.65644 c 1.6585,-2.11474 1.61134,-2.1619 -0.5034,-0.50341 -1.28334,1.00647 -2.33334,2.05647 -2.33334,2.33333 0,1.09739 1.09492,0.39108 2.83674,-1.82992 z m -6.80507,-8.04678 c 0.90513,0.20906 1.76802,-0.96988 1.91752,-2.61988 0.14951,-1.65 -0.29691,-3 -0.99203,-3 -0.69512,0 -0.29484,-1.4789 0.8895,-3.28643 1.18434,-1.80753 2.14939,-3.75753 2.14456,-4.33333 -0.005,-0.5758 -1.15309,0.68886 -2.55168,2.81036 -1.3986,2.12149 -2.19268,4.76992 -1.76463,5.88538 0.45745,1.19211 0.21561,1.68039 -0.58669,1.18455 -0.75072,-0.46397 -2.08582,0.73857 -2.9669,2.67233 -1.38041,3.02968 -1.33459,3.29402 0.33135,1.9114 1.06332,-0.88246 2.67387,-1.43344 3.579,-1.22438 z m 11.14374,-1.02247 c 0.45533,-1.18656 0.2318,-1.72176 -0.52401,-1.25464 -0.72494,0.44803 -1.31806,1.3792 -1.31806,2.06925 0,1.91791 0.95568,1.49528 1.84207,-0.81461 z m -3.94102,-5.48704 c 0.46917,-1.22263 0.31134,-2.76464 -0.35072,-3.42671 -0.71612,-0.71612 -1.46912,0.18439 -1.85882,2.22296 -0.728,3.8083 0.87497,4.68159 2.20954,1.20375 z m -1.39231,-11.84629 c 0.45533,-1.18656 0.2318,-1.72176 -0.52402,-1.25464 -0.72493,0.44802 -1.31806,1.3792 -1.31806,2.06925 0,1.91791 0.95569,1.49528 1.84208,-0.81461 z m 5.62111,-16.01616 c 0.90353,-4.98267 -0.50741,-3.57172 -2.14773,2.14773 -0.86183,3.00504 -0.83298,3.98853 0.0899,3.06563 0.74737,-0.74738 1.67338,-3.09339 2.05781,-5.21336 z m 16.25383,-26.09687 c -0.33287,-0.9986 -0.93726,-0.3942 -1.40873,1.40873 -0.57997,2.2178 -0.40645,2.73838 0.58298,1.74895 0.7748,-0.7748 1.14639,-2.19576 0.82575,-3.15768 z m -8.88979,-1.45107 c 1.63224,-3.04986 -0.45793,-6.45489 -2.21608,-3.61014 -0.65955,1.06717 -0.47611,1.31741 0.51617,0.70414 1.74293,-1.07718 1.88917,-0.59036 0.73003,2.4303 -0.44513,1.15998 -1.64513,2.10905 -2.66667,2.10905 -1.02154,0 -1.85734,0.58117 -1.85734,1.29149 0,2.07286 3.94251,-0.026 5.49389,-2.92484 z m 28.434406,-1.99392 c 1.32996,-3.46581 -0.0905,-3.34121 -2.418784,0.21218 -1.73123,2.64218 -1.79015,3.18326 -0.2837,2.60518 1.04573,-0.40128 2.26185,-1.66909 2.702484,-2.81736 z m 3.79137,-1.70606 c 0.38354,-1.46667 0.47463,-2.66667 0.20242,-2.66667 -0.27221,0 -1.13715,1.2 -1.92208,2.66667 -0.78845,1.47322 -0.87904,2.66666 -0.20242,2.66666 0.6736,0 1.53854,-1.2 1.92208,-2.66666 z m -20.386336,-6 c 0.91292,-1.1 1.21292,-2 0.66666,-2 -0.54625,0 -0.23485,-0.91374 0.692,-2.03052 1.42638,-1.71868 1.29787,-1.90631 -0.83674,-1.22174 -2.05833,0.66012 -1.9433,0.29808 0.62579,-1.96948 1.73124,-1.52804 2.74583,-2.77826 2.25464,-2.77826 -0.49118,0 -0.48265,-0.66406 0.019,-1.47568 0.63578,-1.02871 1.25922,-0.92775 2.05828,0.33333 0.90212,1.42373 1.15059,1.32972 1.16666,-0.44145 0.0128,-1.41796 -0.94488,-2.17776 -2.58904,-2.05391 -1.4352,0.10813 -2.37223,0.43379 -2.08229,0.72373 0.28994,0.28995 -0.8159,1.8142 -2.45743,3.38724 -2.98963,2.8649 -3.29822,7.52674 -0.49822,7.52674 0.81972,0 0.32573,0.88092 -1.09777,1.9576 -1.42349,1.07666 -1.91164,1.97666 -1.08476,2 0.82687,0.0233 2.25034,-0.8576 3.16326,-1.9576 z m -5.33334,-0.66667 c 0,-0.73333 -0.56458,-1.33333 -1.25464,-1.33333 -0.69005,0 -1.62546,0.6 -2.07869,1.33333 -0.45322,0.73333 0.11136,1.33333 1.25465,1.33333 1.14327,0 2.07868,-0.6 2.07868,-1.33333 z m 24.661196,-19.99112 c 0.47187,-0.7635 -0.58351,-1.20842 -2.49185,-1.05048 -1.820734,0.15068 -3.018264,0.7467 -2.661194,1.32446 0.91492,1.48036 4.175954,1.30697 5.153044,-0.27398 z m 92.78675,27.8902 c -0.0724,-2.16868 1.2331,-4.62544 3.54253,-6.66667 2.90177,-2.56478 3.16125,-2.64237 1.25633,-0.37568 -1.32044,1.5712 -2.91457,4.5712 -3.54252,6.66667 l -1.14173,3.80993 -0.11467,-3.43425 z m -46.78127,-18.39925 c -1.1,-0.45824 -2.20704,-2.03316 -2.46009,-3.49983 -0.65021,-3.76858 -1.30875,-4.11914 -4.26721,-2.27156 -3.0708,1.91775 -3.51932,0.0227 -0.57331,-2.42226 1.81903,-1.50966 1.81257,-1.9123 -0.0613,-3.82992 -1.15171,-1.17862 -2.90972,-3.33151 -3.9067,-4.78423 -1.70204,-2.48007 -1.7704,-2.42003 -1.11978,0.98341 0.75509,3.95004 -2.60617,6.53003 -5.16881,3.96739 -0.94834,-0.94835 -0.49869,-1.65699 1.44232,-2.27304 1.55114,-0.49231 2.45812,-1.48105 2.01552,-2.19719 -0.50297,-0.81382 -1.52165,-0.7071 -2.71655,0.28459 -1.57422,1.30648 -1.75216,1.14132 -1.00766,-0.93527 0.4973,-1.38705 1.33398,-3.12192 1.8593,-3.85525 0.52531,-0.73333 0.76725,-2.23333 0.53763,-3.33333 -0.22962,-1.1 -0.68647,-3.2 -1.01523,-4.66667 -0.98788,-4.40724 2.3955,-6.30489 7.33766,-4.11551 2.6166,1.15916 8.20348,-1.43913 7.06284,-3.28472 -1.15004,-1.86082 -7.14498,-1.51098 -13.79548,0.80503 -3.21025,1.11796 -6.21025,1.65859 -6.66666,1.20139 -0.45636,-0.45722 -0.82979,-5.78604 -0.82979,-11.84186 0,-6.33532 -0.65234,-11.80752 -1.5363,-12.88745 -0.84497,-1.03228 -2.19295,-4.27688 -2.99552,-7.21021 -0.80257,-2.93334 -2.96123,-7.94458 -4.79703,-11.1361 -3.97322,-6.90741 -3.9685,-6.87537 -1.00448,-6.8215 3.52077,0.064 6.42941,2.79292 9.18351,8.61613 1.36573,2.88768 4.01751,6.10904 5.89284,7.15858 3.11354,1.74251 4.35474,1.5438 14.29033,-2.28776 7.02327,-2.70847 13.2593,-4.19602 17.5903,-4.19602 h 6.70968 l 0.1378,5 0.1378,5 1.32799,-5 1.32798,-5 h 28.44742 c 16.07342,0 30.0003,-0.59041 32.01746,-1.35733 2.33921,-0.88937 50.19023,-1.34512 138.79093,-1.32191 119.32959,0.0313 135.31157,-0.20095 135.99271,-1.976 0.88199,-2.29841 4.03279,-2.70608 4.73079,-0.6121 0.25653,0.76963 3.45653,1.8256 7.11111,2.34661 l 6.64466,0.94727 0.38231,11.452 0.38231,11.45199 -11.04898,0.86008 c -6.07693,0.47304 -32.34897,0.86736 -58.3823,0.87628 -39.29589,0.0135 -47.97952,0.35322 -51.13877,2.00091 -2.09299,1.0916 -4.26806,1.6988 -4.83347,1.34936 -0.56541,-0.34944 -1.41005,1.75373 -1.87699,4.67375 -0.7701,4.81604 -1.21897,5.30909 -4.8332,5.30909 -3.84688,0 -3.98424,-0.21177 -3.98424,-6.14265 0,-5.38452 -0.28798,-6.00552 -2.33333,-5.03158 -1.28333,0.6111 -17.48333,1.31274 -36,1.55919 l -33.66666,0.44812 v 4.37681 c 0,2.75398 -1.03958,5.31858 -2.80375,6.91679 -2.46699,2.23492 -5.41441,2.59355 -24.54,2.98589 -25.29634,0.51894 -25.08202,0.41402 -30.24526,14.80587 -2.68126,7.47363 -3.85312,9.03307 -9.09831,12.10738 -4.99557,2.92803 -7.1522,3.41658 -12.66667,2.86946 -12.36929,-1.22724 -43.42501,-0.17482 -42.43549,1.43805 0.33744,0.55 -1.07188,0.95783 -3.13182,0.90628 -3.29443,-0.0824 -3.42431,-0.23167 -1.0787,-1.23961 2.64003,-1.13446 2.63936,-1.14684 -0.0667,-1.23962 -1.50334,-0.0516 -3.38562,0.55856 -4.18284,1.35579 -1.0438,1.0438 -1.70027,1.0438 -2.34536,0 -0.49272,-0.79723 -2.54044,-1.44951 -4.5505,-1.44951 -2.01005,0 -4.37464,-0.72 -5.25464,-1.6 -1.24444,-1.24443 -1.6,-1.09629 -1.6,0.66667 0,1.24667 -0.88117,2.26667 -1.95816,2.26667 -1.28306,0 -1.66293,-0.76932 -1.10185,-2.23148 0.61831,-1.61127 0.0423,-1.41748 -2.0724,0.69722 -2.34924,2.34924 -3.45027,2.64958 -5.56481,1.5179 -2.07255,-1.10919 -2.63611,-0.99003 -2.63611,0.55742 0,1.08252 -0.62628,2.35528 -1.39173,2.82836 -1.72155,1.06398 -5.51847,-1.89668 -4.5149,-3.5205 0.40187,-0.65024 0.0953,-1.18226 -0.68134,-1.18226 -0.77662,0 -1.41203,0.86459 -1.41203,1.92131 0,2.46892 -1.47523,3.29695 -4,2.24519 z m 2.66667,-2.83316 c 0,-0.73334 -0.26459,-1.33334 -0.58798,-1.33334 -0.32338,0 -0.9588,0.6 -1.41202,1.33334 -0.45323,0.73333 -0.18864,1.33333 0.58797,1.33333 0.77661,0 1.41203,-0.6 1.41203,-1.33333 z m 90.66666,-20.34295 v -11.0096 l -6,0.4772 -6,0.4772 v 9.32326 9.32324 l -19,-0.66048 c -10.45,-0.36328 -16.6,-0.38206 -13.66666,-0.0417 7.21356,0.8369 31.99394,2.70027 38.99999,2.93262 l 5.66667,0.18792 z m -66.33333,7.37842 c -4.23108,-0.52507 -4.33333,-0.69308 -4.33333,-7.11995 0,-3.6202 -0.6,-6.58219 -1.33334,-6.58219 -1.46888,0 -1.86741,12.3548 -0.44444,13.77778 0.48888,0.48889 3.03888,0.79286 5.66667,0.6755 l 4.77777,-0.21337 z m 14.01555,0.0484 c -1.27479,-0.33372 -3.67479,-0.34583 -5.33334,-0.0269 -1.65854,0.31892 -0.61554,0.59198 2.31779,0.60678 2.93333,0.0148 4.29033,-0.24615 3.01555,-0.57987 z m -36.10474,-8.66723 c -0.42562,-1.06364 -0.74157,-0.74771 -0.80554,0.80556 -0.0579,1.40555 0.25722,2.19305 0.70029,1.75 0.44305,-0.44307 0.49041,-1.59307 0.1052,-2.55556 z m 2.94012,-4.5088 c 0.84552,0.52256 1.4824,0.0231 1.4824,-1.16251 0,-1.48676 1.3289,-2.07869 4.66667,-2.07869 3.68419,0 4.66667,-0.52956 4.66667,-2.51533 0,-1.78355 -1.1808,-2.68864 -4.05871,-3.11103 -2.23228,-0.32763 -4.36769,-0.0957 -4.74536,0.51533 -0.37765,0.61107 -1.28664,1.11103 -2.01997,1.11103 -0.73334,0 -0.96252,-0.6 -0.5093,-1.33333 0.45323,-0.73334 -0.11133,-1.33334 -1.25464,-1.33334 -1.14328,3e-5 -2.07869,-0.59997 -2.07869,-1.3333 0,-0.73334 3.3,-1.33334 7.33333,-1.33334 h 7.33334 v -14.83333 -14.83333 l -4.16667,0.83333 c -2.29167,0.45833 -5.59167,0.83333 -7.33333,0.83333 -3.06495,0 -3.17164,0.35336 -3.32134,11 -0.16461,11.70696 -0.50961,11.58324 -1.85922,-0.66666 -0.46456,-4.21667 -1.30518,-7.66667 -1.86803,-7.66667 -2.2554,0 -4.11808,7.29352 -4.11808,16.12475 0,8.97049 0.15488,9.42074 3.99157,11.60393 3.3786,1.92252 3.996,3.09033 4.02042,7.60465 0.0192,3.56055 0.4157,4.72256 1.19269,3.49584 0.64012,-1.01061 1.83092,-1.4252 2.64625,-0.9213 z m -23.15309,-12.52409 c -0.43608,-0.7056 1.03132,-1.7556 3.2609,-2.33334 2.22956,-0.57774 4.05094,-1.50044 4.0475,-2.05044 -0.004,-0.55 -0.007,-1.9 -0.007,-3 0,-1.1 -0.88118,-2 -1.95816,-2 -1.21158,0 -1.65908,0.77936 -1.17375,2.04412 0.66712,1.7385 0.27791,1.81336 -2.60299,0.50074 -2.21892,-1.01102 -3.15044,-2.29104 -2.70047,-3.7108 0.59415,-1.87468 0.49262,-1.89728 -0.75177,-0.16739 -1.58979,2.21004 -1.98863,9.71312 -0.59064,11.11111 1.36994,1.36994 3.36915,1.05176 2.47561,-0.394 z m 59.67953,-5.15055 c -1.8082,-1.11749 -1.76712,-6.89987 0.049,-6.89987 0.65573,0 0.88526,0.8 0.51005,1.77778 -0.37521,0.97778 0.17427,1.77778 1.22105,1.77778 1.04679,0 2.22376,-1.27702 2.6155,-2.83781 0.85726,-3.41562 5.89368,-7.10986 5.89368,-4.32306 0,1.12629 2.02093,1.85152 5.66666,2.03353 3.11667,0.1556 4.96782,-0.1809 4.11366,-0.74777 -1.1673,-0.77468 -1.12514,-1.61581 0.1697,-3.38662 1.63712,-2.23889 1.75514,-2.23195 2.37538,0.13982 0.92654,3.54316 5.9284,4.62249 6.75597,1.45784 0.44118,-1.68712 -0.25909,-2.74571 -2.21833,-3.35337 -1.57467,-0.48838 -4.4302,-1.99113 -6.34563,-3.33943 -2.73885,-1.92792 -4.38164,-2.19362 -7.6924,-1.2441 -2.60044,0.7458 -3.91503,0.7304 -3.43872,-0.0403 0.42409,-0.6862 -0.1226,-1.24764 -1.21487,-1.24764 -1.09228,0 -2.17769,1.31224 -2.41202,2.91608 -0.40643,2.78167 -0.53362,2.80801 -2.7594,0.57143 -1.28334,-1.28956 -2.34252,-1.8518 -2.35375,-1.24942 -0.0112,0.60239 -0.60204,0.19524 -1.31292,-0.90476 -1.00717,-1.5585 -1.297,-1.19058 -1.31292,1.66667 -0.0289,5.19986 -2.66188,4.57461 -2.80733,-0.66667 l -0.12027,-4.33333 -1.38545,4.66667 c -0.762,2.56666 -1.65788,3.91666 -1.99086,3 -0.33297,-0.91667 -2.29121,-1.66667 -4.35164,-1.66667 -4.38645,0 -6.2742,-3.33477 -2.97617,-5.25753 2.95737,-1.72415 1.39468,-1.76771 -3.03243,-0.0845 -3.30757,1.25754 -3.46386,1.74418 -3.0868,9.61075 l 0.39719,8.28614 7.32644,-0.39359 c 4.02955,-0.21648 7.77036,-1.09132 8.31292,-1.94408 0.91913,-1.44465 1.5948,1.48409 1.19188,5.16627 -0.0833,0.76088 1.18808,1.48432 2.82521,1.60764 1.75738,0.1324 2.32574,-0.17803 1.38759,-0.75784 z m -15.04404,-13.56653 c 0,-0.73334 0.63542,-1.33334 1.41203,-1.33334 0.77661,0 1.0412,0.6 0.58797,1.33334 -0.45322,0.73333 -1.08864,1.33333 -1.41202,1.33333 -0.32339,0 -0.58798,-0.6 -0.58798,-1.33333 z m -8.40934,-0.97463 c -0.33806,-1.29729 -0.63688,-0.55871 -0.66406,1.64129 -0.0272,2.2 0.24942,3.26142 0.61466,2.35871 0.36522,-0.90271 0.38745,-2.70271 0.0493,-4 z m 177.5071,2.31204 c 54.29593,-0.004 57.73727,-0.14419 57.3121,-2.33741 -0.42481,-2.19139 -5.33791,-2.33334 -80.76424,-2.33334 h -80.31191 l -1.9e-4,3.20987 -1.9e-4,3.20987 23,-0.87246 c 12.65,-0.47985 48.994,-0.87429 80.76443,-0.87653 z m -119.76443,-2.00408 c 0,-1.1 -0.23581,-2 -0.52401,-2 -0.28821,0 -0.86937,0.9 -1.29149,2 -0.42211,1.1 -0.1863,2 0.52401,2 0.71032,0 1.29149,-0.9 1.29149,-2 z m -85.33332,-7.0099 c 0,-0.22949 -1.16056,0.20385 -2.57902,0.96299 -4.5999,2.46179 -9.44672,1.55963 -13.52355,-2.51719 -2.14359,-2.14359 -3.89743,-4.94635 -3.89743,-6.22835 0,-2.44548 -3.63552,-7.20755 -5.50247,-7.20755 -0.59905,0 0.39394,2.78936 2.20665,6.19858 1.8127,3.40923 3.29582,7.34464 3.29582,8.74536 0,1.42958 0.61051,2.16945 1.39174,1.68663 0.76545,-0.47308 2.11786,-0.25751 3.00535,0.47904 2.69022,2.23268 10.73764,2.39081 13.26957,0.26073 1.28334,-1.07964 2.33334,-2.15075 2.33334,-2.38024 z m 55.57747,0.7599 c -0.42562,-1.06364 -0.74157,-0.7477 -0.80554,0.80556 -0.0579,1.40555 0.25722,2.19305 0.70029,1.75 0.44305,-0.44306 0.49041,-1.59306 0.1052,-2.55556 z m 19.74642,0.26527 c 0.46712,-0.75581 -0.0681,-0.97934 -1.25464,-0.52401 -2.3099,0.88638 -2.73252,1.84207 -0.81462,1.84207 0.69006,0 1.62123,-0.59313 2.06926,-1.31806 z m -43.64168,65.70838 c 1.65854,-0.31892 4.05854,-0.30681 5.33333,0.0269 1.27479,0.33372 -0.0823,0.59467 -3.01555,0.57987 -2.93333,-0.0148 -3.97633,-0.28785 -2.31778,-0.60677 z m -31.68221,-3.05699 c 0,-0.73333 0.63541,-1.33333 1.41202,-1.33333 0.77662,0 1.0412,0.6 0.58798,1.33333 -0.45323,0.73334 -1.08864,1.33334 -1.41203,1.33334 -0.32339,0 -0.58797,-0.6 -0.58797,-1.33334 z m -39.64129,-10.25731 c 1.29729,-0.33806 3.09729,-0.31583 4,0.0495 0.90271,0.36524 -0.15871,0.64183 -2.35871,0.61466 -2.2,-0.0272 -2.93858,-0.326 -1.64129,-0.66406 z m 7.30795,-1.29239 c 0.91667,-0.36988 2.41667,-0.36988 3.33334,0 0.91666,0.36988 0.16666,0.67252 -1.66667,0.67252 -1.83333,0 -2.58333,-0.30264 -1.66667,-0.67252 z"
     id="path3723"
     inkscape:connector-curvature="0" />
</svg>
