<?xml version="1.0" encoding="UTF-8" standalone="no"?>
<!-- Created with Inkscape (http://www.inkscape.org/) -->

<svg
   xmlns:dc="http://purl.org/dc/elements/1.1/"
   xmlns:cc="http://creativecommons.org/ns#"
   xmlns:rdf="http://www.w3.org/1999/02/22-rdf-syntax-ns#"
   xmlns:svg="http://www.w3.org/2000/svg"
   xmlns="http://www.w3.org/2000/svg"
   xmlns:sodipodi="http://sodipodi.sourceforge.net/DTD/sodipodi-0.dtd"
   xmlns:inkscape="http://www.inkscape.org/namespaces/inkscape"
   version="1.1"
   id="svg3713"
   width="533.33331"
   height="402.66666"
   viewBox="0 0 533.33331 402.66666"
   sodipodi:docname="cross-guns.svg"
   inkscape:version="0.92.4 (5da689c313, 2019-01-14)">
  <metadata
     id="metadata3719">
    <rdf:RDF>
      <cc:Work
         rdf:about="">
        <dc:format>image/svg+xml</dc:format>
        <dc:type
           rdf:resource="http://purl.org/dc/dcmitype/StillImage" />
        <dc:title></dc:title>
      </cc:Work>
    </rdf:RDF>
  </metadata>
  <defs
     id="defs3717" />
  <sodipodi:namedview
     pagecolor="#ffffff"
     bordercolor="#666666"
     borderopacity="1"
     objecttolerance="10"
     gridtolerance="10"
     guidetolerance="10"
     inkscape:pageopacity="0"
     inkscape:pageshadow="2"
     inkscape:window-width="1920"
     inkscape:window-height="1017"
     id="namedview3715"
     showgrid="false"
     inkscape:zoom="0.74456941"
     inkscape:cx="674.83787"
     inkscape:cy="252.25258"
     inkscape:window-x="-8"
     inkscape:window-y="-8"
     inkscape:window-maximized="1"
     inkscape:current-layer="svg3713" />
  <path
     id="path3723-5"
     style="fill:#000000;stroke-width:1.33333325"
     d="m 498.61771,354.75989 c 6.256,1.2212 11.9841,1.86613 12.7294,1.43321 0.7451,-0.43293 0.053,-5.8984 -1.539,-12.14549 -1.5915,-6.24707 -4.319,-18.88363 -6.061,-28.08123 -10.602,-55.97654 -11.6622,-60.44303 -16.6362,-70.0877 -2.7464,-5.32553 -7.9273,-12.79429 -11.5129,-16.5972 -5.9139,-6.27222 -7.72,-7.355 -19.447,-11.65849 -7.1101,-2.60925 -15.0957,-5.34597 -17.7456,-6.08157 l -4.818,-1.33747 -4.699,17.53688 -4.699,17.53687 -2.6897,-1.55303 c -1.4794,-0.85416 -3.9692,-1.90435 -5.5329,-2.33372 -1.5758,-0.4333 -4.4379,-3.57477 -6.4205,-7.04861 -3.8495,-6.74516 -7.6018,-9.66367 -19.1555,-14.899 -24.4826,-11.09384 -30.3627,-13.64318 -37.7194,-16.35324 -15.0581,-5.54717 -20.6139,-8.0258 -21.915,-9.77706 -0.711,-0.95686 -1.8199,-1.43535 -2.4644,-1.0633 -0.6445,0.37205 -0.2581,1.56593 0.8586,2.65307 1.1167,1.08714 2.8701,3.4313 3.8967,5.20931 1.1236,1.94615 2.9516,3.23923 4.5933,3.24911 1.4997,0.009 5.2278,1.52944 8.2845,3.37856 3.0568,1.8492 8.3573,4.50516 11.779,5.90216 3.4216,1.39699 7.7494,3.27306 9.6173,4.16904 l 3.396,1.62902 -4.0218,1.72279 c -5.5863,2.39298 -4.1968,3.69165 1.5363,1.43596 4.2133,-1.65769 5.6625,-1.49286 14.9919,1.70516 5.6803,1.94712 10.7376,4.24988 11.2383,5.11723 0.5008,0.86736 0.5927,4.03745 0.2042,7.04467 -0.5456,4.22292 -1.8991,6.83637 -5.9457,11.47997 -6.9249,7.94645 -7.3213,10.09358 -1.2476,6.75828 4.5721,-2.51072 9.9811,-9.74434 13.2982,-17.78399 l 1.2821,-3.10737 0.9817,3.71397 c 0.54,2.0427 0.6667,6.42482 0.2818,9.73809 l -0.7,6.02409 1.5064,-4.93375 c 1.3627,-4.46284 1.7631,-4.78549 4.1961,-3.38069 1.4794,0.85417 3.722,1.83813 4.9836,2.18654 1.7473,0.48256 1.0089,1.26819 -3.0983,3.29656 -2.9656,1.4647 -7.3277,4.33377 -9.6934,6.37575 -2.3835,2.05721 -4.9738,3.23149 -5.8094,2.63351 -0.8294,-0.59354 -1.307,-0.41017 -1.0614,0.40765 0.8484,2.82483 -7.3702,2.43284 -16.1115,-0.76847 -8.8638,-3.24618 -16.5138,-8.24246 -17.464,-11.40582 -0.3003,-1.00001 -1.2845,-2.04434 -2.1872,-2.32073 -0.9027,-0.27633 -1.2833,-1.201 -0.846,-2.05473 0.4374,-0.85374 0.1285,-1.35199 -0.6864,-1.10727 -0.8148,0.24476 -1.5205,-1.60637 -1.5681,-4.11359 -0.083,-4.37712 -0.1286,-4.42055 -1.1403,-1.09093 -1.4519,4.77828 4.3846,14.57389 11.1941,18.78767 2.9118,1.80183 9.6041,4.43092 14.8718,5.84239 11.1315,2.98268 15.1699,2.07003 23.9361,-5.4094 11.3435,-9.67847 23.1246,-7.22129 31.9073,6.65481 2.2628,3.57512 4.5206,6.2656 5.0172,5.97884 0.4968,-0.28673 0.5341,0.50822 0.083,1.76657 -0.4655,1.29849 -0.042,2.33252 0.9803,2.39104 0.9902,0.0567 1.2893,0.5845 0.6646,1.17282 -0.6247,0.58834 -0.6387,3.23992 -0.031,5.89236 1.2871,5.62011 1.2981,6.33779 0.2608,17.01994 -0.7563,7.78767 -5.1944,22.53445 -8.6496,28.74065 -0.9196,1.65159 -2.5027,5.04675 -3.518,7.54476 l -1.8462,4.54181 29.3681,7.80124 c 16.1525,4.29057 34.4866,8.80029 40.7426,10.02151 z m 1.7515,-6.02337 c 0.5426,-0.3133 1.6657,-0.0614 2.4957,0.55979 0.9173,0.68644 0.5303,0.90983 -0.9866,0.56963 -1.3727,-0.30787 -2.0518,-0.81609 -1.5091,-1.12936 z m -5.4572,-2.92285 c 0.9812,-0.12002 2.4301,0.26821 3.2197,0.86272 0.7897,0.59454 -0.013,0.69275 -1.7839,0.21826 -1.7709,-0.47452 -2.417,-0.96096 -1.4358,-1.08098 z m -7.1231,-5.28018 c 0.5618,-0.52912 -0.1718,-1.28176 -1.6304,-1.67258 -1.4584,-0.39079 -2.8367,-0.0202 -3.0628,0.82352 -0.2261,0.84372 -0.9319,0.18972 -1.5683,-1.45334 -0.6364,-1.64303 -0.8099,-3.18788 -0.3854,-3.43295 0.4244,-0.24509 1.1172,0.56075 1.5395,1.79071 0.5748,1.67462 0.9323,1.24033 1.4235,-1.7291 0.3607,-2.18097 0.1327,-4.9321 -0.5067,-6.11363 -0.6394,-1.18153 -0.6905,-2.59283 -0.1135,-3.13623 0.577,-0.54339 0.7744,-1.83804 0.4388,-2.87697 -0.3357,-1.03897 -0.7504,-5.03236 -0.9216,-8.87424 -0.1712,-3.84188 -0.937,-7.02727 -1.702,-7.07865 -0.8117,-0.0545 -0.6908,-1.88982 0.2906,-4.40833 0.9247,-2.37323 1.1421,-4.45943 0.4841,-4.63573 -1.5998,-0.42866 -2.3549,-12.66195 -0.9048,-14.65833 0.6291,-0.86592 0.5741,-4.24718 -0.1219,-7.51385 -1.8417,-8.64271 -0.3498,-11.85232 1.7896,-3.85039 2.2606,8.45475 3.6414,31.06263 2.0661,33.82928 -0.8049,1.4138 -0.5531,2.02179 0.7806,1.8819 1.0833,-0.11373 1.7887,0.46892 1.5673,1.29491 -0.2213,0.82593 -0.8859,0.98822 -1.4769,0.36065 -0.5911,-0.62761 -1.2315,-0.55612 -1.423,0.15883 -0.1916,0.71495 0.2519,1.9575 0.9856,2.76122 1.3425,1.4707 2.4956,8.77674 2.2861,14.48483 -0.062,1.69156 0.3446,3.19817 0.9039,3.34802 0.7809,0.20923 2.3009,11.90277 1.7935,13.79664 -0.055,0.20576 -0.8773,-0.19024 -1.8269,-0.88005 -0.9495,-0.68975 -1.2668,-1.68703 -0.705,-2.21614 z m -4.3521,-48.6442 c 0.1898,-0.70834 0.016,-2.30778 -0.3857,-3.55427 -0.402,-1.24651 -0.8861,-1.68682 -1.0759,-0.97848 -0.1898,0.70835 -0.016,2.30776 0.3857,3.55428 0.4019,1.24648 0.8861,1.68682 1.0759,0.97847 z m -8.8154,35.60862 c 0.6323,-0.59558 0.536,-1.24731 -0.2141,-1.44831 -0.7501,-0.201 -1.228,-0.87256 -1.0619,-1.49236 0.6432,-2.4005 6.8362,0.67914 7.5242,3.74156 0.6828,3.03946 0.6491,3.04244 -1.2841,0.11398 -1.7151,-2.59785 -2.1579,-2.7695 -3.2536,-1.26109 -0.6976,0.96034 -0.8058,2.23715 -0.2406,2.83731 0.5652,0.60018 0.8705,1.67798 0.6783,2.39512 -0.1921,0.71713 -1.0129,0.15475 -1.8237,-1.24972 -0.8109,-1.4045 -0.9569,-3.04091 -0.3245,-3.63649 z m -5.0946,0.3498 c -1.0546,-2.47194 -0.9968,-2.50527 0.6166,-0.35597 0.9791,1.30434 1.7216,2.59032 1.6499,2.85775 -0.284,1.06 -1.1589,0.0944 -2.2665,-2.50178 z m 8.6559,-6.01131 c -0.9284,-0.0323 -1.4567,-1.39442 -1.1741,-3.02689 0.2827,-1.63247 1.0633,-2.82094 1.7347,-2.64103 0.6714,0.1799 0.6675,-1.35221 -0.01,-3.40467 -0.6761,-2.05246 -1.1037,-4.1858 -0.95,-4.74074 0.149,-0.55618 0.9355,0.96384 1.7374,3.37503 0.8018,2.41119 0.8834,5.1749 0.1812,6.14155 -0.7504,1.03311 -0.6432,1.56733 0.2601,1.29604 0.8453,-0.25384 1.8237,1.25327 2.1742,3.34916 0.5492,3.28372 0.4365,3.5272 -0.8147,1.76053 -0.7987,-1.1276 -2.2118,-2.07666 -3.1402,-2.10898 z m -10.4994,-3.87185 c -0.1327,-1.26397 0.2217,-1.72309 0.8309,-1.07625 0.5843,0.62038 0.9162,1.67333 0.7376,2.33987 -0.4964,1.85256 -1.3102,1.19697 -1.5685,-1.26362 z m 5.2269,-4.28005 c -0.1368,-1.3024 0.4148,-2.75103 1.2257,-3.21918 0.877,-0.50637 1.3713,0.55834 1.2201,2.62831 -0.2825,3.86696 -2.0569,4.2956 -2.4458,0.59087 z m 4.4109,-11.08228 c -0.1328,-1.264 0.2217,-1.72309 0.8309,-1.07627 0.5842,0.62037 0.9162,1.67336 0.7376,2.33989 -0.4964,1.85256 -1.3101,1.19698 -1.5685,-1.26362 z m -1.2843,-16.92527 c 0.4168,-5.04676 1.4146,-3.31869 1.5187,2.63041 0.055,3.1257 -0.2277,4.06822 -0.8804,2.93788 -0.5285,-0.91535 -0.8157,-3.42109 -0.6384,-5.56832 z m -8.9457,-29.41446 c 0.5801,-0.87841 1.0074,-0.13818 0.9962,1.72535 -0.014,2.29232 -0.3162,2.75026 -1.0158,1.53847 -0.5478,-0.94894 -0.539,-2.41765 0.02,-3.26382 z m 8.9625,0.89922 c -0.7872,-3.36838 2.113,-6.1164 3.075,-2.91356 0.3609,1.20153 0.1189,1.39575 -0.6809,0.54655 -1.4047,-1.49157 -1.6719,-1.05918 -1.3341,2.15855 0.1297,1.23566 1.0432,2.46297 2.0299,2.72738 0.9867,0.26438 1.6436,1.04207 1.4598,1.72819 -0.5365,2.00223 -3.8014,-1.04551 -4.5497,-4.24711 z m -26.9495,-9.28534 c -0.3875,-3.69192 0.9527,-3.20381 2.2815,0.83098 0.9884,3.00022 0.9053,3.53813 -0.4002,2.58984 -0.9062,-0.65825 -1.7528,-2.19761 -1.8813,-3.42082 z m -3.2205,-2.62919 c 0.01,-1.51598 0.2316,-2.69866 0.4946,-2.62821 0.2629,0.0705 0.7878,1.45344 1.1664,3.07328 0.3803,1.6271 0.159,2.80332 -0.4947,2.62818 -0.6506,-0.17434 -1.1755,-1.55731 -1.1663,-3.07325 z m 21.2446,-0.51919 c -0.5971,-1.29879 -0.654,-2.24577 -0.1264,-2.10441 0.5277,0.1414 0.4634,-0.8218 -0.1429,-2.14043 -0.9329,-2.0293 -0.7602,-2.17725 1.1245,-0.96353 1.8173,1.17035 1.8,0.79088 -0.095,-2.06434 -1.2768,-1.92407 -1.9333,-3.39429 -1.4588,-3.26715 0.4744,0.12713 0.6381,-0.5165 0.3636,-1.43032 -0.3478,-1.15819 -0.9762,-1.22204 -2.0744,-0.21073 -1.2399,1.14171 -1.4555,0.98662 -1.0127,-0.72837 0.3545,-1.37301 1.4764,-1.859 3.0324,-1.31384 1.3583,0.4759 2.1792,1.033 1.824,1.23801 -0.355,0.20503 0.3186,1.96355 1.4971,3.90787 2.1463,3.54104 1.2378,8.12391 -1.4668,7.39921 -0.7918,-0.21215 -0.5427,0.76658 0.5536,2.175 1.0963,1.40841 1.335,2.4041 0.5302,2.21262 -0.8047,-0.19151 -1.9516,-1.4108 -2.5488,-2.70962 z m 5.3241,0.73641 c 0.1898,-0.70835 0.8904,-1.14177 1.557,-0.96316 0.6665,0.17858 1.4147,1.00024 1.6628,1.8259 0.248,0.82564 -0.4527,1.25907 -1.557,0.96316 -1.1044,-0.29591 -1.8526,-1.11756 -1.6628,-1.8259 z m -18.6468,-25.69273 c -0.2581,-0.8596 0.8763,-1.01622 2.6788,-0.36974 1.7197,0.61678 2.7221,1.50243 2.2278,1.9681 -1.2669,1.19313 -4.372,0.18161 -4.9066,-1.59836 z m -96.8436,2.9249 c 0.6308,-2.07615 0.01,-4.78698 -1.6964,-7.3564 -2.1391,-3.22841 -2.3696,-3.37052 -1.1163,-0.68804 0.8688,1.85944 1.6322,5.1698 1.6963,7.35638 l 0.1168,3.97563 z m 49.9492,-5.66445 c 1.1811,-0.15792 2.6581,-1.39264 3.2821,-2.74385 1.6035,-3.47189 2.3303,-3.64004 4.7097,-1.08973 2.4699,2.64719 3.3937,0.93282 1.1808,-2.19132 -1.3663,-1.92903 -1.2559,-2.31627 1.0502,-3.68363 1.4175,-0.84037 3.6728,-2.4649 5.0118,-3.61008 2.2859,-1.95505 2.3365,-1.87936 0.8271,1.2397 -1.7517,3.62001 0.8273,6.98206 3.9658,5.16999 1.1615,-0.67057 0.9106,-1.47146 -0.8048,-2.56888 -1.3709,-0.87699 -1.9911,-2.06679 -1.3782,-2.64397 0.6965,-0.65591 1.6529,-0.28917 2.5504,0.978 1.1824,1.66939 1.397,1.5559 1.2153,-0.64262 -0.1213,-1.4685 -0.4805,-3.36081 -0.7981,-4.20511 -0.3176,-0.8443 -0.163,-2.35579 0.3434,-3.35889 0.5065,-1.00309 1.4914,-2.91328 2.1885,-4.2449 2.0949,-4.00138 -0.6821,-6.71006 -6.0224,-5.87439 -2.8275,0.44244 -7.5515,-3.51331 -5.9721,-5.00081 1.5925,-1.49975 7.2926,0.38977 13.117,4.34814 2.8115,1.91073 5.5694,3.20939 6.1286,2.88592 0.5591,-0.32354 2.299,-5.37414 3.8664,-11.22362 1.6397,-6.11944 3.6861,-11.23633 4.8194,-12.05069 1.0834,-0.77841 3.2253,-3.56356 4.7597,-6.18921 1.5344,-2.62569 4.9165,-6.90746 7.5158,-9.51509 5.6256,-5.64371 5.6127,-5.61398 2.7358,-6.32908 -3.4174,-0.84943 -6.9332,1.0337 -11.1006,5.94567 -2.0667,2.43579 -5.4617,4.86108 -7.5449,5.38947 -3.4584,0.8773 -4.6059,0.36411 -13.2112,-5.90841 -6.083,-4.43395 -11.7215,-7.4848 -15.905,-8.60575 l -6.481,-1.7366 -1.4272,4.79397 -1.4272,4.79396 0.011,-5.17334 0.011,-5.17334 -27.4781,-7.36273 c -15.5257,-4.1601 -28.8253,-8.33494 -30.5751,-9.59779 -2.0294,-1.4645 -48.132,-14.2895 -133.71969,-37.198622 C 97.084371,53.799951 81.707147,49.439195 81.508577,47.548321 c -0.25707,-2.448372 -3.195,-3.657638 -4.41118,-1.815664 -0.44695,0.677018 -3.81122,0.868786 -7.47614,0.426163 l -6.66336,-0.804757 -3.33327,10.962836 -3.33336,10.962801 10.44991,3.690465 c 5.7475,2.029765 31.022244,9.210343 56.166173,15.956873 37.95343,10.183568 46.25322,12.759188 48.87841,15.168432 1.73916,1.59611 3.68299,2.74558 4.31957,2.55438 0.63657,-0.1912 0.90805,2.05891 0.60338,5.0003 -0.50262,4.85125 -0.19672,5.44366 3.29442,6.37911 3.71573,0.99562 3.90325,0.82663 5.43828,-4.90216 1.39361,-5.20104 1.83253,-5.72634 3.55606,-4.25623 1.08151,0.92245 16.54791,5.79305 34.36978,10.82355 l 32.40356,9.14643 -1.1328,4.22767 c -0.7128,2.66014 -0.3724,5.40642 0.9179,7.40676 1.8045,2.79727 4.5587,3.90652 22.931,9.23556 24.3002,7.04845 24.1203,6.89164 25.3827,22.12944 0.6556,7.91294 1.3839,9.72253 5.6547,14.04964 4.0675,4.12122 6.0242,5.15129 11.4924,6.05007 12.2655,2.01599 41.9906,11.07035 40.6174,12.37216 -0.4684,0.44391 0.7873,1.2026 2.7905,1.68597 3.2035,0.77306 3.3676,0.6625 1.3628,-0.91818 -2.2565,-1.77909 -2.2527,-1.79089 0.3855,-1.18004 1.4654,0.33924 3.1257,1.41578 3.6894,2.39218 0.7381,1.27839 1.3722,1.4483 2.2655,0.60703 0.6822,-0.64254 2.829,-0.74261 4.7706,-0.22236 1.9415,0.52023 4.4119,0.43676 5.4896,-0.18549 1.5242,-0.87993 1.8293,-0.64482 1.373,1.05806 -0.3227,1.2042 0.2645,2.41751 1.3048,2.69626 1.2393,0.33206 1.8053,-0.31272 1.6418,-1.87028 -0.1802,-1.71639 0.3263,-1.38005 1.8213,1.20984 1.6613,2.87724 2.647,3.4523 4.9824,2.90646 2.289,-0.53497 2.8026,-0.274 2.4021,1.22072 -0.2802,1.04564 0,2.4371 0.6122,3.09219 1.3875,1.47328 5.8214,-0.40376 5.2722,-2.232 -0.2199,-0.73211 0.2143,-1.16657 0.9641,-0.96565 0.7501,0.201 1.1402,1.20061 0.8667,2.22133 -0.639,2.38479 0.5716,3.56641 3.2826,3.20396 z m -1.8424,-3.42679 c 0.1898,-0.70835 0.6006,-1.21942 0.913,-1.13572 0.3123,0.0837 0.7709,0.82771 1.0188,1.65336 0.248,0.82564 -0.1629,1.33671 -0.913,1.13571 -0.7502,-0.201 -1.2086,-0.945 -1.0188,-1.65335 z m -82.3122,-43.11605 2.8495,-10.63445 5.672,2.01385 5.6721,2.01386 -2.413,9.00557 -2.4131,9.00556 18.5236,4.27959 c 10.1879,2.35376 16.1332,3.92735 13.2118,3.49692 -7.1844,-1.05863 -31.6027,-5.67239 -38.4302,-7.26125 l -5.5222,-1.28513 z m 62.1634,24.29533 c 4.2228,0.58791 4.3651,0.4521 6.0285,-5.75578 0.937,-3.49684 2.2831,-6.20261 2.9915,-6.01282 1.4188,0.38018 -1.3939,12.41714 -3.1366,13.42336 -0.5988,0.34569 -3.1406,-0.0207 -5.6485,-0.81417 l -4.5598,-1.44268 z m -13.5505,-3.58073 c 1.3178,0.008 3.6391,0.61707 5.1586,1.35438 1.5195,0.73733 0.4414,0.73114 -2.3959,-0.0138 -2.8372,-0.74489 -4.0804,-1.34817 -2.7627,-1.34058 z m 37.1177,0.97269 c 0.6865,-0.91722 0.9099,-0.5303 0.5697,0.98661 -0.3078,1.37267 -0.8161,2.05176 -1.1294,1.50912 -0.3133,-0.54265 -0.061,-1.66571 0.5598,-2.49571 z m -1.6729,-5.11612 c -0.952,0.28592 -1.4379,-0.36136 -1.131,-1.50658 0.3848,-1.4361 -0.7457,-2.3518 -3.9697,-3.21569 -3.5586,-0.95351 -4.3706,-1.71932 -3.8566,-3.63742 0.4616,-1.72278 1.8364,-2.29142 4.7256,-1.95456 2.241,0.2613 4.2436,1.03801 4.4502,1.72595 0.2067,0.688 0.9553,1.40619 1.6636,1.59598 0.7085,0.18982 1.085,-0.33044 0.8371,-1.15608 -0.248,-0.82565 0.4526,-1.2591 1.557,-0.96317 1.1043,0.29591 2.1631,-0.0415 2.3529,-0.74988 0.1898,-0.70836 -2.8425,-2.14201 -6.7384,-3.18591 l -7.0834,-1.898 3.8392,-14.32789 3.8391,-14.3279 3.809,1.88333 c 2.095,1.03585 5.1855,2.25217 6.8678,2.70296 2.9605,0.79325 2.9721,1.16219 0.3611,11.4848 -2.871,11.35066 -2.5057,11.32044 1.9684,-0.16275 1.5401,-3.95274 3.245,-7.06762 3.7887,-6.92193 2.1786,0.58374 2.09,8.11081 -0.1957,16.64113 -2.3217,8.66482 -2.5878,9.05967 -6.8588,10.17546 -3.761,0.98256 -4.6597,1.95078 -5.8516,6.30497 -0.9399,3.43431 -1.6238,4.45405 -2.0569,3.06803 -0.3568,-1.14187 -1.3997,-1.85054 -2.3176,-1.57482 z m 25.6056,-6.10488 c 0.6039,-0.56869 -0.5418,-1.9627 -2.5459,-3.09782 -2.0041,-1.13512 -3.5245,-2.49776 -3.3788,-3.02814 0.1423,-0.53126 0.5014,-1.83267 0.7861,-2.89519 0.2847,-1.06252 1.3688,-1.70378 2.4091,-1.42503 1.1702,0.31356 1.4007,1.18218 0.6046,2.27824 -1.0943,1.50661 -0.7377,1.67965 2.3847,1.15738 2.405,-0.40227 3.6361,-1.39759 3.5689,-2.88541 -0.089,-1.96459 0.015,-1.96013 0.7695,0.0329 0.9636,2.5462 -0.5931,9.89686 -2.3052,10.88539 -1.6779,0.96868 -3.5267,0.14391 -2.2893,-1.02131 z m -56.3129,-20.42124 c 2.0358,-0.61142 3.4927,-6.20741 1.7385,-6.67745 -0.6335,-0.16973 -1.0622,0.54361 -0.9528,1.58518 0.1093,1.04157 -0.6284,1.67212 -1.6396,1.40119 -1.0111,-0.27093 -1.8175,-1.80907 -1.7919,-3.41806 0.056,-3.52112 -3.8527,-8.393 -4.574,-5.70115 -0.2915,1.08791 -2.4312,1.26538 -5.9999,0.49759 -3.0507,-0.65634 -4.7517,-1.4605 -3.7799,-1.78697 1.3281,-0.44617 1.505,-1.26956 0.7126,-3.31515 -1.0018,-2.58631 -1.1177,-2.61018 -2.3306,-0.47974 -1.812,3.18263 -6.9228,2.9306 -6.9031,-0.34042 0.01,-1.74382 0.9609,-2.58509 3.0107,-2.66494 1.6473,-0.0642 4.7946,-0.77666 6.9937,-1.58328 3.1444,-1.15337 4.8,-0.98483 7.7523,0.78923 2.3187,1.39342 3.5925,1.71879 3.3319,0.85108 -0.232,-0.77259 0.4414,-1.1734 1.4964,-0.89069 1.0551,0.28271 1.7639,1.83115 1.5751,3.44099 -0.3274,2.79207 -0.2113,2.85043 2.5175,1.26614 1.5733,-0.91348 2.742,-1.18242 2.5969,-0.59766 -0.1453,0.58471 0.531,0.34442 1.5024,-0.53411 1.3762,-1.24473 1.5609,-0.81432 0.8368,1.94969 -1.3178,5.03018 1.3872,5.10768 2.8842,0.0826 l 1.2377,-4.15454 0.1304,4.86622 c 0.072,2.67642 0.5877,4.2123 1.1466,3.41306 0.5589,-0.79925 2.6445,-1.01687 4.6347,-0.4836 4.237,1.13531 6.9235,-1.59726 4.2355,-4.30809 -2.4103,-2.43083 -0.8896,-2.06845 2.951,0.70322 2.8694,2.07076 2.8944,2.58128 0.4942,10.0822 l -2.5283,7.90099 -6.9749,-2.27639 c -3.8362,-1.25201 -7.2232,-3.06526 -7.5265,-4.02937 -0.5139,-1.63331 -1.9246,1.02075 -2.4884,4.68175 -0.1168,0.75643 -1.5318,1.12624 -3.145,0.82164 -1.7318,-0.32696 -2.2004,-0.7739 -1.1442,-1.09115 z m 18.0427,-9.21059 c 0.1898,-0.70835 -0.2687,-1.45236 -1.0188,-1.65336 -0.7502,-0.201 -1.161,0.31007 -0.9131,1.13572 0.248,0.82564 0.7065,1.56968 1.0188,1.65335 0.3124,0.0837 0.7233,-0.42737 0.9131,-1.13571 z m 8.3751,1.23509 c 0.6622,-1.1656 0.7597,-0.37485 0.2166,1.75722 -0.5434,2.13203 -1.0851,3.08574 -1.2042,2.11927 -0.1192,-0.9665 0.3252,-2.71091 0.988,-3.87638 z M 230.46763,108.84988 C 178.02275,94.793178 174.735,93.767088 175.71336,91.758648 c 0.9775,-2.00677 5.75992,-0.87228 78.61615,18.649482 l 77.5753,20.78624 -0.8306,3.10055 -0.8306,3.10055 -21.9905,-6.79557 c -12.0947,-3.73756 -47.0982,-13.52508 -77.78548,-21.75002 z m 116.20218,29.06151 c 0.2847,-1.06252 0.7454,-1.87082 1.0238,-1.79623 0.2784,0.0746 0.6068,1.09435 0.7298,2.26611 0.1231,1.17177 -0.3376,1.98007 -1.0237,1.79623 -0.6861,-0.18383 -1.0146,-1.20359 -0.7299,-2.26611 z m 84.2399,15.31484 c 0.059,-0.22167 1.0683,0.49729 2.2419,1.59767 3.806,3.56845 8.7212,3.95147 13.7143,1.06875 2.6254,-1.51575 5.0448,-3.76909 5.3766,-5.00741 0.633,-2.36215 5.3771,-6.02102 7.1805,-5.5378 0.5786,0.15503 -1.1025,2.59234 -3.7358,5.41623 -2.6333,2.8239 -5.0845,6.24136 -5.447,7.59435 -0.37,1.38087 -1.1512,1.93752 -1.7808,1.26896 -0.617,-0.65508 -1.9791,-0.79689 -3.027,-0.31514 -3.1764,1.46033 -10.9905,-0.46975 -12.8849,-3.18257 -0.9602,-1.375 -1.6972,-2.68137 -1.6378,-2.90304 z m -53.8804,-13.65051 c 0.6865,-0.91722 0.9099,-0.53028 0.5697,0.98662 -0.3078,1.37266 -0.8161,2.05175 -1.1294,1.50911 -0.3133,-0.54264 -0.061,-1.6657 0.5598,-2.4957 z m -19.1422,-4.85451 c -0.2556,-0.85095 0.3192,-0.92837 1.3476,-0.18142 2.0018,1.45403 2.1626,2.48653 0.3101,1.99014 -0.6666,-0.17861 -1.4126,-0.99254 -1.6577,-1.80872 z m 25.1481,74.76472 c -1.5195,-0.7373 -3.8408,-1.34677 -5.1586,-1.35438 -1.3177,-0.008 -0.075,0.59563 2.7627,1.34058 2.8372,0.7449 3.9153,0.7511 2.3959,0.0138 z m 31.3938,5.24713 c 0.1898,-0.70834 -0.2686,-1.45235 -1.0188,-1.65335 -0.7501,-0.201 -1.161,0.31007 -0.913,1.13571 0.2479,0.82565 0.7064,1.56966 1.0188,1.65336 0.3124,0.0837 0.7232,-0.42737 0.913,-1.13572 z m 40.9454,0.35212 c -1.1656,-0.6623 -2.91,-1.1067 -3.8765,-0.98746 -0.9665,0.11916 -0.013,0.66104 2.1192,1.20419 2.1321,0.54313 2.9229,0.44568 1.7573,-0.21663 z m -6.7244,-3.13977 c -0.7897,-0.59454 -2.2386,-0.98277 -3.2198,-0.86275 -0.9812,0.12002 -0.3351,0.60646 1.4358,1.08098 1.7708,0.47449 2.5736,0.37628 1.784,-0.21823 z M 40.726686,353.56115 c -6.255968,1.2212 -11.984178,1.86614 -12.729351,1.4332 -0.745171,-0.43292 -0.05267,-5.89839 1.538906,-12.14547 1.591561,-6.24707 4.319053,-18.88364 6.061077,-28.08124 10.601977,-55.97655 11.662143,-60.44302 16.636103,-70.08769 2.746491,-5.32555 7.927338,-12.7943 11.51298,-16.59721 5.913865,-6.2722 7.72003,-7.355 19.446963,-11.65848 7.11017,-2.60927 15.095687,-5.34596 17.745596,-6.08156 l 4.81801,-1.33747 4.69899,17.53688 4.69899,17.53686 2.68969,-1.55302 c 1.47934,-0.85416 3.96919,-1.90436 5.533,-2.33374 1.57567,-0.43328 4.43788,-3.57477 6.42042,-7.04861 3.84952,-6.74516 7.60183,-9.66368 19.15545,-14.89899 24.48267,-11.09385 30.36275,-13.64317 37.7194,-16.35323 15.05811,-5.54719 20.61394,-8.02582 21.91513,-9.77709 0.71097,-0.95686 1.81991,-1.43534 2.46433,-1.06329 0.64442,0.37206 0.25805,1.56594 -0.8586,2.65307 -1.11665,1.08714 -2.87014,3.43132 -3.89667,5.20931 -1.12361,1.94615 -2.95163,3.23923 -4.5933,3.24911 -1.49977,0.009 -5.22783,1.52945 -8.28457,3.37857 -3.05672,1.84919 -8.35725,4.50515 -11.77894,5.90215 -3.42169,1.397 -7.74947,3.27307 -9.61729,4.16904 l -3.39603,1.62903 4.02175,1.72279 c 5.58631,2.39298 4.19693,3.69163 -1.53627,1.43596 -4.21332,-1.65769 -5.66243,-1.49287 -14.99192,1.70515 -5.68028,1.94712 -10.7375,4.24988 -11.23826,5.11722 -0.50077,0.86737 -0.59265,4.03747 -0.20418,7.04468 0.5455,4.22294 1.899,6.8364 5.94571,11.47998 6.92489,7.94643 7.32125,10.09358 1.24757,6.75827 -4.57209,-2.51072 -9.98112,-9.74433 -13.2982,-17.78397 l -1.28208,-3.10739 -0.98173,3.71397 c -0.53995,2.0427 -0.66672,6.42482 -0.28174,9.73808 l 0.7,6.02409 -1.50644,-4.93372 c -1.36265,-4.46286 -1.76312,-4.78551 -4.19612,-3.38071 -1.47933,0.85417 -3.72196,1.83812 -4.98362,2.18655 -1.74721,0.48255 -1.00883,1.26818 3.09826,3.29656 2.96571,1.46468 7.3278,4.33376 9.69352,6.37574 2.38342,2.05722 4.97373,3.23149 5.80933,2.63352 0.82939,-0.59353 1.30703,-0.41016 1.06143,0.40765 -0.84843,2.82482 7.37027,2.43283 16.11148,-0.76846 8.8638,-3.2462 16.51384,-8.24248 17.46394,-11.40583 0.30035,-1.00002 1.28462,-2.04435 2.18728,-2.32072 0.90265,-0.27634 1.2833,-1.20101 0.84594,-2.05474 -0.43737,-0.85374 -0.1285,-1.35199 0.68638,-1.10726 0.81487,0.24475 1.52056,-1.60638 1.56819,-4.11361 0.0832,-4.37712 0.12857,-4.42055 1.14028,-1.09091 1.45189,4.77828 -4.38453,14.57387 -11.19407,18.78765 -2.91177,1.80182 -9.60413,4.43091 -14.87187,5.8424 -11.13149,2.98267 -15.16982,2.07003 -23.93599,-5.40942 -11.34352,-9.67846 -23.12466,-7.22129 -31.90734,6.65482 -2.26282,3.57512 -4.520579,6.2656 -5.017259,5.97885 -0.49667,-0.28675 -0.53399,0.5082 -0.0829,1.76655 0.46545,1.29852 0.0415,2.33252 -0.98032,2.39106 -0.99023,0.0567 -1.28931,0.58449 -0.66461,1.17282 0.6247,0.58833 0.63879,3.2399 0.0313,5.89237 -1.28711,5.62009 -1.29812,6.33777 -0.26079,17.01993 0.75625,7.78767 5.194359,22.53445 8.649619,28.74063 0.91954,1.65161 2.50264,5.04676 3.51801,7.54476 l 1.84613,4.54183 -29.368077,7.80124 c -16.152462,4.29056 -34.486618,8.8003 -40.742584,10.0215 z m -1.751496,-6.02338 c -0.542633,-0.31328 -1.665706,-0.0614 -2.495709,0.55981 -0.917237,0.68642 -0.530288,0.90983 0.986602,0.56961 1.372643,-0.30786 2.051745,-0.81608 1.509122,-1.12936 z m 5.457234,-2.92284 c -0.981167,-0.12003 -2.430056,0.2682 -3.21975,0.86273 -0.789703,0.59453 0.01307,0.69274 1.783931,0.21824 1.770871,-0.4745 2.416986,-0.96095 1.435819,-1.08097 z m 7.123083,-5.28018 c -0.561818,-0.52911 0.171829,-1.28177 1.630319,-1.67257 1.458499,-0.3908 2.836787,-0.0202 3.062862,0.82351 0.226076,0.84372 0.931799,0.18973 1.568269,-1.45333 0.636485,-1.64305 0.809931,-3.18789 0.385459,-3.43296 -0.424472,-0.24507 -1.117237,0.56075 -1.539479,1.7907 -0.574894,1.67463 -0.932424,1.24035 -1.42353,-1.7291 -0.360704,-2.18096 -0.132688,-4.93208 0.506704,-6.11362 0.639386,-1.18153 0.690443,-2.59283 0.11346,-3.13623 -0.57699,-0.54339 -0.774426,-1.83803 -0.438745,-2.87698 0.335668,-1.03894 0.750359,-5.03235 0.92152,-8.87422 0.171164,-3.84187 0.937069,-7.02727 1.702017,-7.07865 0.811787,-0.0545 0.690827,-1.88982 -0.290523,-4.40835 -0.924736,-2.37322 -1.142583,-4.45929 -0.48416,-4.63571 1.599795,-0.42867 2.354898,-12.66195 0.904786,-14.65833 -0.628995,-0.86594 -0.574103,-4.24718 0.121974,-7.51387 1.841626,-8.6427 0.349756,-11.8523 -1.789711,-3.85037 -2.260539,8.45474 -3.64129,31.06261 -2.066092,33.82927 0.804936,1.4138 0.552836,2.02187 -0.780524,1.8819 -1.083351,-0.11373 -1.788672,0.46892 -1.567351,1.2949 0.221308,0.82594 0.885961,0.98823 1.476999,0.36065 0.591047,-0.62759 1.231368,-0.5561 1.422938,0.15885 0.191571,0.71495 -0.251946,1.9575 -0.9856,2.7612 -1.342526,1.47072 -2.495639,8.77674 -2.286156,14.48484 0.06208,1.69158 -0.344645,3.19818 -0.903829,3.34801 -0.780855,0.20923 -2.30097,11.90278 -1.793508,13.79665 0.05513,0.20576 0.877207,-0.19022 1.826818,-0.88003 0.949621,-0.68978 1.266907,-1.68706 0.705083,-2.21616 z m 4.352097,-48.6442 c -0.1898,-0.70835 -0.01622,-2.30777 0.385729,-3.55428 0.401957,-1.2465 0.886113,-1.68682 1.075913,-0.97847 0.189799,0.70834 0.01623,2.30776 -0.38573,3.55427 -0.401947,1.2465 -0.886113,1.68682 -1.075912,0.97848 z m 8.815389,35.60863 c -0.632395,-0.59558 -0.536046,-1.24732 0.214102,-1.44832 0.750148,-0.20101 1.228027,-0.87257 1.061953,-1.49237 -0.643212,-2.4005 -6.836334,0.67916 -7.524282,3.74158 -0.682794,3.03947 -0.649177,3.04245 1.284122,0.11397 1.715018,-2.59784 2.157921,-2.7695 3.253587,-1.2611 0.697568,0.96036 0.805858,2.23715 0.240622,2.83732 -0.565231,0.60018 -0.870468,1.67798 -0.67831,2.39512 0.192155,0.71713 1.012817,0.15477 1.823699,-1.24972 0.810882,-1.40449 0.956903,-3.0409 0.324507,-3.63648 z m 5.094546,0.34979 c 1.054653,-2.47193 0.996894,-2.50528 -0.616539,-0.35596 -0.979118,1.30432 -1.72158,2.59031 -1.649923,2.85773 0.284025,1.06 1.15883,0.0944 2.266462,-2.50177 z m -8.655853,-6.01131 c 0.928397,-0.0323 1.456753,-1.39443 1.174108,-3.0269 -0.282636,-1.63247 -1.063251,-2.82093 -1.734685,-2.64102 -0.671434,0.17991 -0.667561,-1.3522 0.0086,-3.40467 0.676162,-2.05247 1.103631,-4.18579 0.949938,-4.74072 -0.153858,-0.55489 -0.935509,0.96382 -1.737359,3.37502 -0.801862,2.41118 -0.88342,5.17489 -0.181253,6.14156 0.750403,1.03309 0.64318,1.56733 -0.260115,1.29603 -0.845224,-0.25386 -1.823592,1.25326 -2.174156,3.34917 -0.549234,3.28372 -0.436559,3.52719 0.814767,1.76051 0.79869,-1.1276 2.211758,-2.07665 3.140155,-2.10898 z m 10.499392,-3.87184 c 0.132711,-1.26398 -0.221723,-1.72309 -0.83088,-1.07627 -0.584279,0.6204 -0.916185,1.67335 -0.737587,2.33989 0.496392,1.85255 1.310123,1.19698 1.568467,-1.26362 z m -5.226884,-4.28006 c 0.136744,-1.3024 -0.41481,-2.75102 -1.225667,-3.21918 -0.877064,-0.50637 -1.371337,0.55835 -1.220138,2.62832 0.282467,3.86695 2.056841,4.29561 2.445805,0.59086 z m -4.410913,-11.08228 c 0.13271,-1.26398 -0.221723,-1.72309 -0.830889,-1.07627 -0.584273,0.62038 -0.916185,1.67335 -0.737587,2.33988 0.496391,1.85256 1.310132,1.19698 1.568476,-1.26361 z m 1.284288,-16.92528 c -0.416867,-5.04674 -1.41455,-3.31869 -1.518675,2.63042 -0.0547,3.12571 0.227711,4.06822 0.880281,2.93791 0.528467,-0.91535 0.815732,-3.42109 0.638375,-5.56832 z m 8.945627,-29.41444 c -0.579984,-0.87842 -1.00735,-0.13819 -0.996123,1.72534 0.0138,2.29233 0.316145,2.75027 1.015777,1.53847 0.547867,-0.94894 0.539024,-2.41765 -0.01965,-3.26381 z m -8.962442,0.89922 c 0.787261,-3.36839 -2.112975,-6.11642 -3.074942,-2.91356 -0.360873,1.20151 -0.118916,1.39575 0.680827,0.54655 1.404746,-1.49158 1.672001,-1.0592 1.334162,2.15855 -0.129737,1.23566 -1.043211,2.46297 -2.029943,2.72737 -0.986732,0.26439 -1.643635,1.04208 -1.45979,1.72819 0.536495,2.00223 3.801443,-1.04551 4.549686,-4.2471 z m 26.94946,-9.28534 c 0.38763,-3.69194 -0.95218,-3.20394 -2.28145,0.83098 -0.98839,3.00022 -0.90526,3.53811 0.40024,2.58983 0.90624,-0.65826 1.75279,-2.19762 1.88121,-3.42081 z m 3.220617,-2.62921 c -0.009,-1.51596 -0.23172,-2.69865 -0.49466,-2.62819 -0.26293,0.0704 -0.78782,1.45342 -1.166397,3.07327 -0.38029,1.62709 -0.15891,2.80331 0.494657,2.62819 0.65065,-0.17434 1.17553,-1.55732 1.1664,-3.07327 z m -21.244596,-0.51918 c 0.597112,-1.2988 0.653953,-2.24578 0.126306,-2.1044 -0.527637,0.14138 -0.463341,-0.82182 0.142883,-2.14043 0.932951,-2.02929 0.760257,-2.17727 -1.124438,-0.96355 -1.817342,1.17036 -1.799935,0.79089 0.09473,-2.06434 1.276763,-1.92405 1.933201,-3.39426 1.458748,-3.26713 -0.474443,0.12712 -0.638075,-0.51652 -0.363581,-1.43032 0.347866,-1.15821 0.976194,-1.22204 2.074418,-0.21075 1.239869,1.14173 1.455541,0.98662 1.012651,-0.72836 -0.354631,-1.37296 -1.47633,-1.859 -3.032411,-1.31383 -1.358311,0.4759 -2.179126,1.03299 -1.824023,1.23801 0.355105,0.20502 -0.318549,1.96355 -1.497013,3.90785 -2.14627,3.54105 -1.237772,8.12391 1.46682,7.39922 0.791789,-0.21216 0.54263,0.7666 -0.5537,2.17502 -1.096326,1.4084 -1.334905,2.40407 -0.53016,2.21261 0.804726,-0.19151 1.951699,-1.41081 2.548811,-2.70961 z m -5.324158,0.73642 c -0.189799,-0.70835 -0.890433,-1.14178 -1.55698,-0.96318 -0.666537,0.1786 -1.414782,1.00026 -1.662769,1.8259 -0.247977,0.82565 0.452656,1.25908 1.55699,0.96318 1.104314,-0.2959 1.852559,-1.11756 1.662759,-1.8259 z m 18.646807,-25.69273 c 0.25818,-0.85961 -0.87639,-1.01622 -2.67883,-0.36975 -1.719695,0.61679 -2.722159,1.50244 -2.22772,1.9681 1.26689,1.19312 4.37193,0.18162 4.90655,-1.59835 z m 96.843626,2.92489 c -0.63123,-2.07605 -0.006,-4.78699 1.69636,-7.35639 2.13908,-3.22842 2.36964,-3.37052 1.11629,-0.68804 -0.86879,1.85942 -1.63215,5.16979 -1.69635,7.35638 l -0.11675,3.97561 -0.99961,-3.28755 z M 132.4332,215.8334 c -1.18112,-0.15793 -2.65806,-1.39266 -3.28209,-2.74386 -1.60344,-3.47188 -2.33027,-3.64005 -4.70973,-1.08972 -2.46982,2.64718 -3.39353,0.93279 -1.1807,-2.19134 1.36632,-1.92902 1.25586,-2.31627 -1.05047,-3.68356 -1.41752,-0.84037 -3.67283,-2.4649 -5.01183,-3.61008 -2.28594,-1.95504 -2.33643,-1.87935 -0.8271,1.23972 1.7517,3.62002 -0.82727,6.98205 -3.96585,5.16999 -1.16148,-0.67058 -0.91056,-1.47146 0.80486,-2.56888 1.37087,-0.877 1.99104,-2.0668 1.37817,-2.64398 -0.69646,-0.65591 -1.65281,-0.28918 -2.55033,0.97799 -1.18243,1.6694 -1.39706,1.55592 -1.21539,-0.6426 0.12136,-1.4685 0.48052,-3.36081 0.79814,-4.20511 0.31761,-0.8443 0.16308,-2.35581 -0.34342,-3.3589 -0.5065,-1.00309 -1.4913,-2.91329 -2.18846,-4.2449 -2.0949,-4.00138 0.68205,-6.71005 6.02246,-5.8744 2.82746,0.44244 7.55148,-3.51331 5.97203,-5.00079 -1.59247,-1.49977 -7.29259,0.38976 -13.11705,4.34813 -2.81151,1.91074 -5.56937,3.2094 -6.12856,2.88591 -0.55914,-0.32352 -2.299049,-5.37412 -3.866409,-11.22359 -1.6397,-6.11945 -3.68612,-11.23635 -4.81947,-12.0507 -1.08335,-0.77841 -3.225167,-3.56357 -4.759587,-6.18923 -1.53443,-2.62567 -4.91654,-6.90745 -7.51581,-9.51508 -5.625605,-5.6437 -5.612753,-5.61398 -2.735787,-6.32909 3.417367,-0.84942 6.933197,1.0337 11.100607,5.94568 2.06658,2.43581 5.461747,4.86107 7.544817,5.38948 3.458449,0.87729 4.605919,0.3641 13.211289,-5.90842 6.08295,-4.43394 11.72149,-7.4848 15.90491,-8.60575 l 6.48106,-1.73659 1.4272,4.79396 1.42719,4.79397 -0.0114,-5.17334 -0.0114,-5.17334 27.4781,-7.36273 c 15.52573,-4.16011 28.82526,-8.33494 30.57519,-9.59781 2.02932,-1.4645 48.1319,-14.28947 133.71961,-37.198606 115.27163,-30.854537 130.64893,-35.215314 130.84744,-37.106173 0.25707,-2.448369 3.19499,-3.657635 4.41117,-1.815661 0.44699,0.67701 3.81125,0.868778 7.47615,0.42616 l 6.66342,-0.804772 3.33328,10.962834 3.33328,10.962823 -10.44989,3.69046 c -5.74743,2.029747 -31.02222,9.210335 -56.16617,15.956873 -37.95342,10.18356 -46.25324,12.759198 -48.87839,15.168422 -1.73914,1.59611 -3.68295,2.74557 -4.31953,2.55437 -0.63659,-0.19119 -0.90811,2.05892 -0.60338,5.0003 0.50262,4.85125 0.19666,5.44368 -3.29442,6.37911 -3.7158,0.99565 -3.90329,0.82665 -5.43831,-4.90215 -1.39362,-5.20104 -1.83251,-5.72635 -3.5561,-4.25622 -1.08143,0.92243 -16.54783,5.79303 -34.36978,10.82355 l -32.40351,9.14642 1.1328,4.22768 c 0.71278,2.66014 0.37239,5.40641 -0.91802,7.40677 -1.80449,2.79727 -4.55866,3.90653 -22.93101,9.23556 -24.30008,7.04844 -24.12022,6.89162 -25.38264,22.12943 -0.65558,7.91293 -1.3839,9.72253 -5.65467,14.04964 -4.06752,4.12121 -6.02422,5.15129 -11.49239,6.05006 -12.26545,2.01599 -41.99059,11.07036 -40.61735,12.37217 0.4683,0.44392 -0.78745,1.20261 -2.79054,1.68597 -3.2035,0.77307 -3.36759,0.6625 -1.36278,-0.91818 2.25646,-1.7791 2.2526,-1.79088 -0.38526,-1.18012 -1.46547,0.33925 -3.12569,1.41579 -3.68941,2.39219 -0.73808,1.27839 -1.37218,1.4483 -2.26544,0.60702 -0.68227,-0.64254 -2.82904,-0.7426 -4.77061,-0.22236 -1.94156,0.52024 -4.41193,0.43678 -5.4897,-0.18548 -1.52412,-0.87994 -1.82923,-0.64482 -1.37294,1.05807 0.32266,1.20419 -0.26449,2.41749 -1.30478,2.69624 -1.23934,0.33208 -1.80538,-0.31271 -1.64185,-1.87026 0.18021,-1.7164 -0.32602,-1.38013 -1.82133,1.20983 -1.66117,2.87722 -2.64695,3.4523 -4.98234,2.90646 -2.28901,-0.53498 -2.80252,-0.27402 -2.40201,1.2207 0.28017,1.04564 0.005,2.43712 -0.61228,3.0922 -1.38751,1.47329 -5.82133,-0.40377 -5.27223,-2.232 0.21988,-0.7321 -0.21394,-1.16664 -0.96411,-0.96564 -0.75016,0.20101 -1.14015,1.20059 -0.86665,2.22131 0.63901,2.38479 -0.57165,3.56642 -3.2826,3.20396 z m 1.84253,-3.42681 c -0.18981,-0.70835 -0.60067,-1.21943 -0.91304,-1.13573 -0.31236,0.0837 -0.77084,0.82772 -1.01882,1.65337 -0.24798,0.82565 0.16288,1.33672 0.91303,1.13572 0.75015,-0.201 1.20863,-0.94502 1.01883,-1.65336 z m 82.31212,-43.11604 -2.84949,-10.63445 -5.67205,2.01385 -5.67205,2.01385 2.41304,9.00558 2.41303,9.00556 -18.52353,4.27959 c -10.18795,2.35375 -16.13325,3.92735 -13.21177,3.49691 7.18437,-1.05862 31.60265,-5.67238 38.43011,-7.26125 l 5.52222,-1.28512 z m -62.1634,24.29534 c -4.22281,0.5879 -4.36506,0.45208 -6.02845,-5.7558 -0.93698,-3.49684 -2.28315,-6.20261 -2.99151,-6.01281 -1.41883,0.38017 1.39388,12.41714 3.13666,13.42334 0.59875,0.3457 3.14054,-0.0207 5.64841,-0.81416 l 4.55975,-1.44267 z m 13.55051,-3.58074 c -1.31773,0.008 -3.63908,0.61706 -5.15857,1.35438 -1.51949,0.73732 -0.44135,0.73113 2.39586,-0.0138 2.83721,-0.74491 4.08043,-1.34818 2.76271,-1.34059 z m -37.11775,0.97269 c -0.6864,-0.91724 -0.90982,-0.5303 -0.56959,0.9866 0.30785,1.37264 0.81606,2.05175 1.12936,1.50912 0.31328,-0.54264 0.0614,-1.66571 -0.55981,-2.49571 z m 1.67298,-5.11613 c 0.95196,0.28592 1.43787,-0.36136 1.13101,-1.50657 -0.3848,-1.4361 0.74561,-2.3518 3.96965,-3.21568 3.55865,-0.95354 4.3706,-1.71934 3.85664,-3.63745 -0.46161,-1.72277 -1.83643,-2.29141 -4.7256,-1.95455 -2.24102,0.26129 -4.24364,1.038 -4.45029,1.72596 -0.20663,0.68799 -0.95525,1.40618 -1.66359,1.59598 -0.70835,0.1898 -1.08501,-0.33044 -0.83704,-1.15608 0.24799,-0.82566 -0.45263,-1.25909 -1.55698,-0.96318 -1.10431,0.29593 -2.16314,-0.0415 -2.35294,-0.74987 -0.1898,-0.70835 2.84246,-2.14201 6.73836,-3.18591 l 7.08346,-1.89801 -3.83915,-14.3279 -3.83915,-14.32789 -3.80901,1.88335 c -2.09496,1.03584 -5.18546,2.25216 -6.86777,2.70294 -2.96052,0.79326 -2.97211,1.1622 -0.36116,11.48481 2.87098,11.35066 2.50572,11.32044 -1.96841,-0.16275 -1.54009,-3.95275 -3.24499,-7.06762 -3.78866,-6.92195 -2.17855,0.58374 -2.09006,8.11084 0.19563,16.64115 2.32173,8.66483 2.58787,9.05965 6.85888,10.17544 3.76106,0.98257 4.65968,1.95079 5.85166,6.30497 0.94008,3.43426 1.62382,4.45405 2.05684,3.06803 0.35674,-1.14185 1.39966,-1.85051 2.31763,-1.57481 z m -25.60564,-6.10488 c -0.60385,-0.56869 0.54179,-1.9627 2.54587,-3.09781 2.00406,-1.13511 3.52457,-2.49778 3.3789,-3.02815 -0.14622,-0.53022 -0.49852,-1.83344 -0.78322,-2.89596 -0.2847,-1.06252 -1.3688,-1.70379 -2.40908,-1.42504 -1.1703,0.31358 -1.40083,1.1822 -0.6047,2.27825 1.09435,1.5066 0.73778,1.67965 -2.38469,1.15738 -2.40498,-0.40227 -3.63606,-1.39758 -3.56888,-2.88542 0.0887,-1.96458 -0.0152,-1.96013 -0.76948,0.0329 -0.96362,2.5462 0.59307,9.89684 2.30525,10.88537 1.67783,0.9687 3.52657,0.14392 2.28928,-1.02131 z m 56.31294,-20.42124 c -2.03582,-0.61142 -3.49273,-6.2074 -1.73849,-6.67745 0.63339,-0.16972 1.06215,0.54362 0.95279,1.58519 -0.10935,1.04158 0.62846,1.6721 1.63957,1.40118 1.01112,-0.27093 1.81747,-1.80906 1.7919,-3.41806 -0.056,-3.52111 3.85269,-8.39299 4.57397,-5.70115 0.2915,1.08791 2.43128,1.26537 5.99989,0.4976 3.05074,-0.65636 4.75172,-1.4605 3.77995,-1.78699 -1.32803,-0.44616 -1.505,-1.26954 -0.7126,-3.31514 1.00187,-2.58632 1.11766,-2.61016 2.33063,-0.47974 1.812,3.18262 6.92278,2.9306 6.90308,-0.34041 -0.0105,-1.74382 -0.96091,-2.58509 -3.01066,-2.66496 -1.64742,-0.0642 -4.79459,-0.77666 -6.99372,-1.58327 -3.1445,-1.15336 -4.80009,-0.98482 -7.75228,0.78923 -2.31881,1.39343 -3.59259,1.7188 -3.33198,0.85108 0.23204,-0.77258 -0.44133,-1.1734 -1.49639,-0.89069 -1.05506,0.2827 -1.76385,1.83115 -1.57509,3.44099 0.32737,2.79208 0.21133,2.85044 -2.51748,1.26614 -1.57337,-0.91346 -2.74198,-1.18241 -2.59692,-0.59765 0.14509,0.58476 -0.531,0.34441 -1.50235,-0.53412 -1.37623,-1.24472 -1.56096,-0.81432 -0.83682,1.94969 1.31791,5.03016 -1.38718,5.10768 -2.88422,0.0826 l -1.23772,-4.15454 -0.13042,4.86623 c -0.0717,2.67643 -0.58768,4.2123 -1.14657,3.41305 -0.55887,-0.79925 -2.6445,-1.01687 -4.63472,-0.48359 -4.23699,1.1353 -6.92352,-1.59726 -4.23551,-4.30809 2.41035,-2.43083 0.88964,-2.06845 -2.95098,0.70323 -2.86939,2.07075 -2.8944,2.58126 -0.49417,10.08219 l 2.52827,7.901 6.97493,-2.2764 c 3.83621,-1.25203 7.22313,-3.06525 7.5265,-4.02938 0.5139,-1.63331 1.92456,1.02075 2.48839,4.68175 0.11647,0.75651 1.53177,1.12625 3.14503,0.82164 1.73177,-0.32695 2.20042,-0.77391 1.14417,-1.09115 z m -18.04271,-9.21058 c -0.1898,-0.70835 0.26868,-1.45237 1.01883,-1.65337 0.75014,-0.201 1.16101,0.31007 0.91303,1.13573 -0.24798,0.82564 -0.70646,1.56966 -1.01882,1.65335 -0.31237,0.0837 -0.72324,-0.42737 -0.91304,-1.13571 z m -8.37505,1.23507 c -0.6623,-1.16558 -0.75978,-0.37483 -0.21663,1.75724 0.54313,2.13208 1.08504,3.08574 1.20419,2.11925 0.11914,-0.96647 -0.32526,-2.71089 -0.98765,-3.87646 z m 172.05709,-43.70895 c 52.44481,-14.056691 55.73261,-15.082788 54.75428,-17.091234 -0.97751,-2.006771 -5.75994,-0.872281 -78.61618,18.649494 l -77.57535,20.78625 0.83059,3.10055 0.83059,3.10054 21.99049,-6.79557 c 12.09477,-3.73756 47.09829,-13.52508 77.78558,-21.75003 z m -116.20225,29.06152 c -0.2847,-1.06252 -0.74541,-1.87082 -1.02379,-1.79623 -0.27839,0.0746 -0.60681,1.09434 -0.72984,2.26611 -0.12303,1.17177 0.33768,1.98007 1.02379,1.79623 0.68612,-0.18384 1.01455,-1.20359 0.72984,-2.26611 z m -84.23995,15.31484 c -0.0594,-0.22167 -1.06825,0.49728 -2.2419,1.59768 -3.806,3.56845 -8.721169,3.95148 -13.714239,1.06873 -2.625347,-1.51574 -5.044837,-3.76907 -5.376647,-5.00739 -0.63293,-2.36215 -5.377091,-6.02102 -7.180426,-5.53782 -0.578638,0.15505 1.102456,2.59236 3.735766,5.41625 2.63331,2.8239 5.08446,6.24136 5.44699,7.59435 0.37,1.38087 1.1512,1.93751 1.78085,1.26895 0.61692,-0.65508 1.979037,-0.79688 3.026927,-0.31513 3.17641,1.46033 10.990549,-0.46976 12.884899,-3.18257 0.96018,-1.375 1.69718,-2.68138 1.63778,-2.90305 z m 53.88039,-13.6505 c -0.68641,-0.91724 -0.90982,-0.53029 -0.5696,0.9866 0.30786,1.37265 0.81606,2.05175 1.12937,1.50912 0.31328,-0.54263 0.0614,-1.6657 -0.55982,-2.4957 z m 19.14224,-4.85452 c 0.25558,-0.85095 -0.31926,-0.92834 -1.34752,-0.18143 -2.00178,1.45403 -2.16265,2.48654 -0.3101,1.99015 0.66655,-0.1786 1.41248,-0.99253 1.65762,-1.80872 z m -25.14805,74.76472 c 1.51948,-0.73731 3.84084,-1.34678 5.15856,-1.35438 1.31773,-0.008 0.0744,0.59571 -2.76271,1.34059 -2.83721,0.74491 -3.91534,0.75111 -2.39585,0.0138 z m -31.39387,5.24714 c -0.1898,-0.70835 0.26867,-1.45236 1.01881,-1.65336 0.75016,-0.201 1.16102,0.31007 0.91304,1.13572 -0.24798,0.82566 -0.70645,1.56967 -1.01882,1.65337 -0.31237,0.0837 -0.72323,-0.42738 -0.91303,-1.13573 z m -40.945326,0.35212 c 1.16558,-0.66231 2.91,-1.10671 3.87651,-0.98747 0.96648,0.11916 0.0128,0.66104 -2.11925,1.2042 -2.13208,0.54313 -2.92283,0.44567 -1.75724,-0.21664 z m 6.72444,-3.13979 c 0.7897,-0.59453 2.238587,-0.98276 3.219757,-0.86273 0.98115,0.12002 0.33504,0.60647 -1.43582,1.08097 -1.770857,0.4745 -2.573637,0.37628 -1.783937,-0.21824 z"
     inkscape:connector-curvature="0" />
</svg>
