<?xml version="1.0" encoding="UTF-8"?>
<!DOCTYPE svg PUBLIC "-//W3C//DTD SVG 1.1//EN" "http://www.w3.org/Graphics/SVG/1.1/DTD/svg11.dtd">
<!-- Creator: CorelDRAW 2019 (64-Bit) -->
<svg xmlns="http://www.w3.org/2000/svg" xml:space="preserve" width="200px" height="100px" version="1.1" style="shape-rendering:geometricPrecision; text-rendering:geometricPrecision; image-rendering:optimizeQuality; fill-rule:evenodd; clip-rule:evenodd"
viewBox="0 0 200 100"
 xmlns:xlink="http://www.w3.org/1999/xlink"
 xmlns:xodm="http://www.corel.com/coreldraw/odm/2003">
 <defs>
  <style type="text/css">
   <![CDATA[
    .fil0 {fill:black;fill-rule:nonzero}
   ]]>
  </style>
 </defs>
 <g id="Слой_x0020_1">
  <metadata id="CorelCorpID_0Corel-Layer"/>
  <g id="_2267073654000">
   <path class="fil0" d="M192.64 25.19c-1.74,-0.02 -2.46,0.04 -2.6,0.19 -0.11,0.11 -0.3,0.55 -0.42,0.96 -0.11,0.42 -0.26,0.81 -0.31,0.86 -0.05,0.04 -0.76,0.28 -1.57,0.52 -1.06,0.33 -1.64,0.42 -2.08,0.35 -0.74,-0.1 -1.53,-0.01 -1.91,0.23 -0.17,0.1 -4.73,0.22 -12.33,0.31 -6.63,0.07 -17.96,0.22 -25.18,0.32 -10.9,0.17 -13.16,0.15 -13.36,-0.04 -0.3,-0.29 -1.6,-0.3 -2.04,0 -0.23,0.15 -3.95,0.27 -13.83,0.45 -16.45,0.31 -20.65,0.32 -20.59,0.08 0.07,-0.32 -19.05,-0.13 -20.69,0.2 -0.51,0.11 -0.83,0.26 -1.26,0.62 -0.5,0.43 -0.59,0.47 -0.76,0.31 -0.22,-0.22 -2.04,-1.36 -2.58,-1.63 -0.21,-0.1 -0.41,-0.16 -0.45,-0.12 -0.04,0.04 0.32,0.52 0.78,1.07 0.47,0.56 0.85,1.08 0.85,1.17 0.01,0.12 -0.3,0.42 -0.87,0.87 -0.67,0.53 -0.99,0.87 -1.42,1.49 -0.32,0.45 -0.67,0.9 -0.79,1.02 -0.25,0.25 -8.05,3.39 -11.68,4.7 -2.78,1.01 -5.42,1.83 -6.26,1.94 -0.73,0.1 -1.94,-0.13 -2.9,-0.54 -0.42,-0.19 -1.52,-0.79 -2.47,-1.37 -2.63,-1.59 -1.55,-1.61 -16.75,0.25 -9.23,1.13 -14.31,1.79 -18.56,2.42 -2.11,0.3 -3.94,0.57 -4.05,0.59 -0.13,0.01 -0.22,0.19 -0.29,0.58 -0.18,0.96 -0.09,1.8 0.42,4.12 0.54,2.51 1.21,6.38 1.79,10.37 0.99,6.92 1.09,7.38 1.47,7.65 0.19,0.13 0.52,0.24 0.72,0.24 0.43,0.01 7.12,-2.33 13.37,-4.68 2.28,-0.86 5.44,-2.03 7.02,-2.63 14.87,-5.55 25.15,-9.5 31.26,-12.02 5.36,-2.2 7.11,-2.88 7.6,-2.93 0.65,-0.07 0.98,-0.29 1.26,-0.81 0.18,-0.36 0.63,-0.77 0.73,-0.68 0.02,0.03 0.12,0.23 0.22,0.46l0.18 0.43 -0.45 0.22c-0.24,0.12 -2.04,0.86 -4,1.65 -5.18,2.07 -5.71,2.38 -6.15,3.64 -0.42,1.18 -0.19,2.36 0.65,3.31 0.7,0.79 1.17,0.98 2.31,0.92 0.78,-0.05 1.37,-0.21 2.96,-0.84 3.13,-1.22 5.9,-2.41 6.49,-2.78 0.3,-0.19 0.72,-0.47 0.96,-0.61 0.33,-0.23 0.92,-0.29 3.17,-0.35 3.09,-0.08 3.93,-0.28 5.11,-1.2 1.02,-0.79 1.57,-1.62 1.85,-2.82 0.26,-1.07 0.39,-1.8 0.41,-2.46 0.02,-0.36 0.09,-0.46 0.57,-0.85 0.49,-0.4 0.65,-0.45 1.66,-0.54 0.6,-0.04 2.79,-0.24 4.83,-0.42 4.02,-0.36 4.04,-0.36 14.56,-0.72 3.9,-0.14 9.27,-0.34 11.94,-0.44 2.68,-0.1 6.83,-0.24 9.26,-0.32 2.4,-0.09 4.68,-0.22 5.03,-0.3 0.37,-0.09 1.11,-0.21 1.67,-0.27 0.55,-0.05 1.26,-0.21 1.55,-0.35 0.53,-0.25 0.55,-0.27 0.71,-0.81l0.17 -0.55 2.15 -0.09c4.55,-0.22 44.13,-0.79 44.57,-0.66 0.64,0.21 1.32,0.19 1.93,-0.02 0.3,-0.1 2.72,-0.23 5.83,-0.28l5.3 -0.11 0.02 -1.35c0.01,-1.09 0.07,-1.42 0.28,-1.63 0.21,-0.22 0.27,-0.56 0.27,-1.77l0.01 -1.5 -1.15 0.08 -1.15 0.06 -0.05 -0.48c-0.05,-0.41 -0.38,-2.12 -0.48,-2.51 -0.02,-0.09 -1.13,-0.16 -2.46,-0.17l0 0zm-109.2 16.13c0.11,1.68 -0.38,2.84 -1.5,3.61 -0.9,0.61 -1.69,0.81 -3.26,0.83 -1.55,0 -2.05,-0.18 -2.89,-1.01 -0.38,-0.38 -0.61,-0.79 -1.14,-2.1 -0.35,-0.89 -0.65,-1.69 -0.66,-1.77 -0.01,-0.15 0.62,-0.36 2.1,-0.72l0.8 -0.19 -0.17 0.86c-0.08,0.47 -0.1,1.1 -0.03,1.39 0.19,0.77 0.72,1.72 0.94,1.72 0.12,0 0.13,-0.17 0,-0.55 -0.26,-0.75 -0.32,-1.78 -0.12,-2.39 0.13,-0.45 0.22,-0.56 0.67,-0.84 0.45,-0.3 0.72,-0.33 2.77,-0.3 2.58,0.05 2.4,-0.06 2.49,1.46l0 0zm-8.73 3.93c0.35,0.82 0.15,1.88 -0.5,2.55 -0.68,0.7 -8.98,3.94 -9.79,3.82 -1.24,-0.19 -2.01,-1.1 -2.11,-2.47 -0.07,-1 0.19,-1.59 0.89,-2.01 1.14,-0.69 7.94,-3.34 8.96,-3.5 0.86,-0.13 2.14,0.69 2.55,1.61l0 0z"/>
  </g>
 </g>
</svg>
