<?xml version="1.0" standalone="no"?>
<!DOCTYPE svg PUBLIC "-//W3C//DTD SVG 20010904//EN"
 "http://www.w3.org/TR/2001/REC-SVG-20010904/DTD/svg10.dtd">
<svg version="1.0" xmlns="http://www.w3.org/2000/svg"
 width="512.000000pt" height="512.000000pt" viewBox="0 0 512.000000 512.000000"
 preserveAspectRatio="xMidYMid meet">
<metadata>
Created by potrace 1.15, written by Peter Selinger 2001-2017
</metadata>
<g transform="translate(0.000000,512.000000) scale(0.100000,-0.100000)"
fill="#000000" stroke="none">
<path d="M2428 5096 c-124 -51 -210 -126 -313 -271 -110 -154 -204 -376 -245
-575 -17 -81 -20 -138 -20 -327 l0 -229 -37 -13 c-43 -15 -97 -62 -121 -106
-16 -28 -17 -157 -22 -1562 l-5 -1531 -22 -24 c-67 -71 -87 -214 -44 -300 32
-61 86 -113 142 -138 48 -20 58 -20 831 -18 876 3 814 -2 893 76 51 50 77 112
78 186 2 94 -18 150 -75 207 l-48 48 -2 1520 -3 1519 -30 43 c-17 23 -49 52
-71 63 l-41 21 -6 255 c-5 272 -10 305 -68 486 -70 220 -173 399 -308 535
-117 117 -189 153 -316 157 -76 2 -99 -1 -147 -22z m-270 -1700 c15 -8 38 -26
52 -41 l25 -27 3 -1376 c2 -1320 1 -1378 -16 -1411 -20 -37 -72 -71 -110 -71
-40 0 -91 28 -112 62 -20 33 -20 47 -20 1407 0 1358 0 1374 20 1406 35 57 104
79 158 51z"/>
</g>
</svg>
