<?xml version="1.0" encoding="UTF-8"?>
<!DOCTYPE svg PUBLIC "-//W3C//DTD SVG 1.1//EN" "http://www.w3.org/Graphics/SVG/1.1/DTD/svg11.dtd">
<!-- Creator: CorelDRAW 2019 (64-Bit) -->
<svg xmlns="http://www.w3.org/2000/svg" xml:space="preserve" width="200px" height="200px" version="1.1" style="shape-rendering:geometricPrecision; text-rendering:geometricPrecision; image-rendering:optimizeQuality; fill-rule:evenodd; clip-rule:evenodd"
viewBox="0 0 200 200"
 xmlns:xlink="http://www.w3.org/1999/xlink"
 xmlns:xodm="http://www.corel.com/coreldraw/odm/2003">
 <defs>
  <style type="text/css">
   <![CDATA[
    .str1 {stroke:black;stroke-miterlimit:22.9256}
    .str2 {stroke:#2B2A29;stroke-width:2.36;stroke-miterlimit:22.9256}
    .str3 {stroke:#1F1B20;stroke-width:2.36;stroke-miterlimit:22.9256}
    .str0 {stroke:black;stroke-width:2.36;stroke-miterlimit:22.9256}
    .fil0 {fill:none}
    .fil1 {fill:#7688A1}
    .fil2 {fill:black}
    .fil3 {fill:black}
   ]]>
  </style>
 </defs>
 <g id="Слой_x0020_1">
  <metadata id="CorelCorpID_0Corel-Layer"/>
  <path class="fil0 str0" d="M100 15c9.53,0 18.7,1.57 27.25,4.46 -1.55,17.36 17.22,27.97 31.64,19.25 12.03,11.56 20.67,26.64 24.26,43.58 -10.75,7.9 -12.74,26.24 0.15,34.68 -3.57,17.63 -12.6,33.28 -25.24,45.11 -6.89,-3.2 -15.13,-3.26 -21.51,1.26 -5.15,3.29 -8.9,8.99 -9.21,17.17 -17.72,6.01 -37.34,5.97 -55.03,-0.13l0.14 -1.41c-1.21,-11.95 -8.09,-20.27 -20.2,-21.02 -4.26,-0.24 -7.96,0.69 -11.61,2.88 -11.86,-11.57 -20.34,-26.58 -23.85,-43.41 4.5,-3.19 7.56,-7.52 8.67,-12.97 0.15,-1.51 0.39,-3.05 0.39,-4.58 -0.75,-6.66 -3.34,-13.14 -9.11,-17.08 3.52,-17.1 12.18,-32.32 24.28,-43.99 12.53,7.15 32.06,0.72 32.06,-17.95 0,-0.51 -0.02,-0.99 -0.05,-1.48 8.47,-2.83 17.54,-4.37 26.97,-4.37z"/>
  <circle class="fil0 str1" cx="100" cy="45" r="20"/>
  <circle class="fil0 str1" cx="52" cy="128" r="20"/>
  <circle class="fil0 str1" cx="148" cy="128" r="20"/>
  <circle class="fil0 str1" cx="148" cy="72" r="20"/>
  <circle class="fil0 str1" cx="52" cy="72" r="20"/>
  <circle class="fil0 str1" cx="100" cy="100" r="9.5"/>
  <circle class="fil0 str1" cx="100" cy="155" r="20"/>
  <path class="fil1 str2" d="M100 135c11.05,0 20,8.95 20,20 0,11.05 -8.95,20 -20,20 -11.05,0 -20,-8.95 -20,-20 0,-11.05 8.95,-20 20,-20zm48 -43c-11.05,0 -20,-8.95 -20,-20 0,-11.05 8.95,-20 20,-20 11.05,0 20,8.95 20,20 0,11.05 -8.95,20 -20,20zm-96 -40c11.05,0 20,8.95 20,20 0,11.05 -8.95,20 -20,20 -11.05,0 -20,-8.95 -20,-20 0,-11.05 8.95,-20 20,-20zm57.5 48c0,5.25 -4.25,9.5 -9.5,9.5 -5.25,0 -9.5,-4.25 -9.5,-9.5 0,-5.25 4.25,-9.5 9.5,-9.5 5.25,0 9.5,4.25 9.5,9.5zm38.5 8c11.05,0 20,8.95 20,20 0,11.05 -8.95,20 -20,20 -11.05,0 -20,-8.95 -20,-20 0,-11.05 8.95,-20 20,-20zm-48 77c9.63,0 18.76,-1.58 27.34,-4.49 0.31,-8.18 4.06,-13.88 9.21,-17.17 6.37,-4.52 14.63,-4.46 21.51,-1.26 12.64,-11.83 21.67,-27.48 25.24,-45.11 -12.89,-8.44 -10.9,-26.78 -0.15,-34.68 -3.59,-16.94 -12.23,-32.02 -24.26,-43.58 -14.42,8.72 -33.19,-1.89 -31.64,-19.25 -17.45,-5.9 -36.75,-5.93 -54.22,-0.09 0.03,0.49 0.05,0.97 0.05,1.48 0,18.67 -19.53,25.1 -32.06,17.95 -12.1,11.67 -20.76,26.89 -24.28,43.99 5.85,4 8.46,10.64 9.15,17.43 -0.21,2.15 -0.28,4.06 -0.91,6.14l-0.14 0.43c-1.28,4.27 -4.42,8.12 -8.05,10.63 3.51,16.83 11.99,31.84 23.85,43.41 4.71,-2.83 9.66,-3.52 15.04,-2.43 10.44,2.12 15.73,10.22 16.77,20.57l-0.14 1.41c8.68,3 18.06,4.62 27.69,4.62zm-48 -77c11.05,0 20,8.95 20,20 0,11.05 -8.95,20 -20,20 -11.05,0 -20,-8.95 -20,-20 0,-11.05 8.95,-20 20,-20zm68 -63c0,11.05 -8.95,20 -20,20 -11.05,0 -20,-8.95 -20,-20 0,-11.05 8.95,-20 20,-20 11.05,0 20,8.95 20,20z"/>
  <path class="fil2 str3" d="M100 135c11.05,0 20,8.95 20,20 0,11.05 -8.95,20 -20,20 -11.05,0 -20,-8.95 -20,-20 0,-11.05 8.95,-20 20,-20zm48 -43c-11.05,0 -20,-8.95 -20,-20 0,-11.05 8.95,-20 20,-20 11.05,0 20,8.95 20,20 0,11.05 -8.95,20 -20,20zm-96 -40c11.05,0 20,8.95 20,20 0,11.05 -8.95,20 -20,20 -11.05,0 -20,-8.95 -20,-20 0,-11.05 8.95,-20 20,-20zm57.5 48c0,5.25 -4.25,9.5 -9.5,9.5 -5.25,0 -9.5,-4.25 -9.5,-9.5 0,-5.25 4.25,-9.5 9.5,-9.5 5.25,0 9.5,4.25 9.5,9.5zm38.5 8c11.05,0 20,8.95 20,20 0,11.05 -8.95,20 -20,20 -11.05,0 -20,-8.95 -20,-20 0,-11.05 8.95,-20 20,-20zm-96 0c11.05,0 20,8.95 20,20 0,11.05 -8.95,20 -20,20 -11.05,0 -20,-8.95 -20,-20 0,-11.05 8.95,-20 20,-20zm68 -63c0,11.05 -8.95,20 -20,20 -11.05,0 -20,-8.95 -20,-20 0,-11.05 8.95,-20 20,-20 11.05,0 20,8.95 20,20zm-20 140c9.63,0 18.76,-1.58 27.34,-4.49 0.31,-8.18 4.06,-13.88 9.21,-17.17 6.37,-4.52 14.63,-4.46 21.51,-1.26 12.64,-11.83 21.67,-27.48 25.24,-45.11 -12.89,-8.44 -10.9,-26.78 -0.15,-34.68 -3.59,-16.94 -12.23,-32.02 -24.26,-43.58 -14.42,8.72 -33.19,-1.89 -31.64,-19.25 -17.45,-5.9 -36.75,-5.93 -54.22,-0.09 0.03,0.49 0.05,0.97 0.05,1.48 0,18.67 -19.53,25.1 -32.06,17.95 -12.1,11.67 -20.76,26.89 -24.28,43.99 5.85,4 8.46,10.64 9.15,17.43 -0.21,2.15 -0.28,4.06 -0.91,6.14l-0.14 0.43c-1.28,4.27 -4.42,8.12 -8.05,10.63 3.51,16.83 11.99,31.84 23.85,43.41 4.71,-2.83 9.66,-3.52 15.04,-2.43 10.44,2.12 15.73,10.22 16.77,20.57l-0.14 1.41c8.68,3 18.06,4.62 27.69,4.62z"/>
  <path class="fil3 str1" d="M100 92.5c-4.14,0 -7.5,3.36 -7.5,7.5 0,4.14 3.36,7.5 7.5,7.5 4.14,0 7.5,-3.36 7.5,-7.5 0,-4.14 -3.36,-7.5 -7.5,-7.5z"/>
 </g>
</svg>
