<?xml version="1.0" encoding="UTF-8"?>
<!DOCTYPE svg PUBLIC "-//W3C//DTD SVG 1.1//EN" "http://www.w3.org/Graphics/SVG/1.1/DTD/svg11.dtd">
<!-- Creator: CorelDRAW 2019 (64-Bit) -->
<svg xmlns="http://www.w3.org/2000/svg" xml:space="preserve" width="200px" height="50px" version="1.1" style="shape-rendering:geometricPrecision; text-rendering:geometricPrecision; image-rendering:optimizeQuality; fill-rule:evenodd; clip-rule:evenodd"
viewBox="0 0 200 50"
 xmlns:xlink="http://www.w3.org/1999/xlink"
 xmlns:xodm="http://www.corel.com/coreldraw/odm/2003">
 <defs>
  <style type="text/css">
   <![CDATA[
    .str0 {stroke:black;stroke-width:2.36;stroke-miterlimit:22.9256}
    .fil0 {fill:black;fill-rule:nonzero}
   ]]>
  </style>
 </defs>
 <g id="Слой_x0020_1">
  <metadata id="CorelCorpID_0Corel-Layer"/>
  <path class="fil0 str0" d="M41.42 18.63c-0.48,-0.17 -0.72,-0.41 -0.84,-0.67 -0.12,-0.27 -0.12,-0.56 -0.01,-0.85 0.11,-0.28 0.34,-0.56 0.86,-0.67 0.53,-0.11 1.35,-0.06 2.29,0.07 0.93,0.13 1.98,0.34 2.98,0.59 1,0.24 1.94,0.54 2.84,0.91 0.9,0.37 1.76,0.81 2.44,1.23 0.68,0.41 1.18,0.79 1.68,1.22 0.5,0.43 0.99,0.91 1.43,1.41 0.44,0.5 0.82,1.01 1.15,1.56 0.32,0.54 0.6,1.11 0.82,1.67 0.22,0.55 0.4,1.11 0.54,1.72 0.15,0.61 0.27,1.28 0.34,2.01 0.08,0.73 0.12,1.52 0.11,2.25 -0.01,0.72 -0.06,1.37 -0.16,1.98 -0.09,0.61 -0.23,1.18 -0.41,1.79 -0.18,0.61 -0.4,1.27 -0.69,1.9 -0.3,0.64 -0.66,1.26 -1.2,2.01 -0.54,0.75 -1.26,1.62 -2.14,2.47 -0.88,0.86 -1.91,1.68 -2.91,2.35 -1.01,0.67 -1.99,1.19 -2.9,1.62 -0.91,0.43 -1.75,0.77 -2.7,1.12 -0.96,0.34 -2.02,0.69 -3.34,1 -1.31,0.32 -2.87,0.62 -4.09,0.82 -1.21,0.21 -2.07,0.33 -3.14,0.38 -1.07,0.05 -2.36,0.04 -3.62,-0.02 -1.25,-0.05 -2.47,-0.13 -3.91,-0.31 -1.45,-0.18 -3.11,-0.46 -4.64,-0.8 -1.53,-0.35 -2.92,-0.76 -4.45,-1.35 -1.53,-0.6 -3.2,-1.37 -4.59,-2.2 -1.39,-0.83 -2.51,-1.7 -3.52,-2.67 -1,-0.96 -1.89,-2.01 -2.59,-3.07 -0.7,-1.06 -1.19,-2.12 -1.59,-3.2 -0.39,-1.07 -0.69,-2.16 -0.87,-3.21 -0.19,-1.06 -0.28,-2.09 -0.3,-3.28 -0.01,-1.19 0.04,-2.53 0.26,-3.93 0.22,-1.39 0.62,-2.83 1.07,-4.1 0.44,-1.26 0.94,-2.35 1.45,-3.27 0.5,-0.92 1.02,-1.68 1.58,-2.41 0.56,-0.73 1.16,-1.43 1.82,-2.1 0.66,-0.68 1.38,-1.31 2.16,-1.91 0.77,-0.61 1.59,-1.17 2.5,-1.73 0.92,-0.55 1.91,-1.08 2.91,-1.56 1,-0.48 1.99,-0.91 3.17,-1.36 1.18,-0.45 2.53,-0.91 3.92,-1.28 1.38,-0.37 2.79,-0.65 4.05,-0.9 1.26,-0.25 2.38,-0.47 3.64,-0.64 1.25,-0.17 2.64,-0.29 4.09,-0.39 1.44,-0.09 2.93,-0.16 4.51,-0.16 1.58,0 3.25,0.07 5.02,0.16 1.77,0.1 3.64,0.22 5.47,0.38 1.82,0.16 3.59,0.37 5.37,0.62 1.79,0.25 3.59,0.54 5.36,0.84 1.76,0.3 3.48,0.61 6.46,1.27 2.99,0.65 7.26,1.65 12.28,3.02 5.03,1.36 10.82,3.1 15.69,4.59 4.87,1.49 8.82,2.73 12.79,3.96 3.97,1.23 7.96,2.45 11.5,3.5 3.54,1.05 6.63,1.93 9.76,2.81 3.14,0.89 6.32,1.78 9.52,2.65 3.21,0.87 6.44,1.71 9.2,2.42 2.75,0.71 5.04,1.27 7.01,1.73 1.96,0.46 3.61,0.8 5.14,1.09 1.53,0.29 2.94,0.53 4.32,0.75 1.39,0.21 2.74,0.4 3.95,0.5 1.2,0.09 2.25,0.09 3.29,0.05 1.04,-0.04 2.07,-0.13 3.05,-0.26 0.98,-0.13 1.9,-0.3 2.85,-0.54 0.94,-0.24 1.91,-0.55 2.81,-0.92 0.9,-0.37 1.74,-0.8 2.58,-1.3 0.85,-0.5 1.69,-1.07 2.44,-1.69 0.74,-0.63 1.4,-1.32 1.92,-1.92 0.52,-0.6 0.92,-1.12 1.31,-1.68 0.38,-0.56 0.76,-1.16 1.05,-1.75 0.3,-0.6 0.5,-1.18 0.69,-1.81 0.19,-0.63 0.36,-1.3 0.51,-1.95 0.14,-0.64 0.26,-1.26 0.31,-1.9 0.06,-0.63 0.04,-1.29 -0.01,-1.94 -0.05,-0.66 -0.14,-1.31 -0.29,-1.94 -0.14,-0.63 -0.35,-1.23 -0.6,-1.8 -0.25,-0.58 -0.54,-1.13 -0.85,-1.61 -0.31,-0.48 -0.63,-0.9 -1,-1.29 -0.37,-0.4 -0.78,-0.78 -1.19,-1.11 -0.4,-0.34 -0.8,-0.63 -1.26,-0.93 -0.47,-0.3 -1,-0.61 -1.57,-0.88 -0.58,-0.27 -1.2,-0.49 -1.78,-0.7 -0.59,-0.2 -1.14,-0.39 -1.75,-0.51 -0.61,-0.12 -1.28,-0.17 -1.75,-0.31 -0.47,-0.14 -0.75,-0.36 -0.88,-0.67 -0.14,-0.31 -0.14,-0.71 -0.06,-1.02 0.07,-0.31 0.23,-0.53 0.42,-0.67 0.19,-0.14 0.41,-0.19 0.68,-0.22 0.26,-0.02 0.57,-0.02 1.11,0.05 0.54,0.07 1.32,0.21 2.17,0.43 0.85,0.22 1.78,0.53 2.68,0.94 0.9,0.4 1.78,0.9 2.55,1.4 0.77,0.5 1.44,1 2.07,1.59 0.63,0.59 1.21,1.28 1.68,1.97 0.48,0.69 0.84,1.38 1.16,2.2 0.31,0.83 0.59,1.79 0.76,2.71 0.17,0.92 0.24,1.8 0.23,2.82 -0.01,1.01 -0.09,2.16 -0.21,3.15 -0.12,0.98 -0.28,1.78 -0.52,2.67 -0.24,0.89 -0.56,1.85 -0.99,2.75 -0.43,0.91 -0.97,1.75 -1.56,2.54 -0.59,0.79 -1.25,1.53 -1.96,2.23 -0.71,0.7 -1.48,1.35 -2.47,2.01 -0.99,0.66 -2.19,1.34 -3.36,1.88 -1.17,0.54 -2.3,0.95 -3.58,1.37 -1.27,0.41 -2.68,0.82 -4.06,1.13 -1.38,0.31 -2.74,0.52 -4.1,0.66 -1.35,0.15 -2.71,0.24 -3.93,0.28 -1.22,0.04 -2.3,0.04 -3.59,0 -1.27,-0.04 -2.75,-0.13 -4.44,-0.32 -1.7,-0.19 -3.6,-0.48 -6.16,-0.94 -2.55,-0.45 -5.74,-1.07 -8.97,-1.75 -3.22,-0.68 -6.46,-1.42 -9.44,-2.15 -2.97,-0.73 -5.67,-1.46 -7.87,-2.06 -2.2,-0.6 -3.9,-1.08 -8.95,-2.58 -5.05,-1.5 -13.45,-4.01 -20.31,-6.12 -6.85,-2.1 -12.16,-3.81 -17.13,-5.33 -4.96,-1.52 -9.59,-2.87 -13.19,-3.88 -3.6,-1.02 -6.17,-1.7 -8.65,-2.32 -2.47,-0.62 -4.84,-1.17 -7.15,-1.63 -2.31,-0.46 -4.57,-0.82 -6.56,-1.1 -1.99,-0.28 -3.73,-0.49 -5.27,-0.6 -1.53,-0.11 -2.87,-0.13 -4.53,-0.06 -1.66,0.07 -3.64,0.22 -5.45,0.45 -1.81,0.24 -3.46,0.54 -5.01,0.92 -1.54,0.38 -2.99,0.83 -4.34,1.35 -1.34,0.53 -2.6,1.13 -3.78,1.79 -1.19,0.67 -2.31,1.39 -3.33,2.17 -1.02,0.78 -1.95,1.63 -2.82,2.58 -0.86,0.96 -1.67,2.02 -2.33,3.13 -0.66,1.11 -1.18,2.27 -1.58,3.35 -0.39,1.08 -0.67,2.1 -0.85,3.08 -0.19,0.98 -0.3,1.93 -0.33,2.93 -0.04,0.99 0,2.04 0.11,3.08 0.11,1.04 0.3,2.08 0.62,3.07 0.32,0.99 0.76,1.93 1.4,2.89 0.63,0.95 1.46,1.92 2.34,2.76 0.87,0.84 1.8,1.56 2.81,2.2 1,0.64 2.08,1.19 3.23,1.7 1.16,0.5 2.38,0.97 3.57,1.35 1.19,0.37 2.36,0.67 3.56,0.9 1.19,0.23 2.41,0.4 3.59,0.54 1.17,0.14 2.31,0.24 3.34,0.29 1.03,0.04 1.96,0.02 3,-0.05 1.04,-0.07 2.19,-0.19 3.25,-0.36 1.07,-0.17 2.05,-0.4 3.14,-0.68 1.09,-0.28 2.29,-0.63 3.42,-1.04 1.12,-0.41 2.17,-0.89 3.13,-1.43 0.97,-0.53 1.84,-1.12 2.63,-1.72 0.78,-0.6 1.46,-1.22 2.06,-1.87 0.59,-0.64 1.09,-1.31 1.53,-2.05 0.43,-0.74 0.81,-1.55 1.07,-2.36 0.26,-0.81 0.4,-1.62 0.49,-2.49 0.09,-0.88 0.15,-1.83 0.03,-2.78 -0.11,-0.96 -0.38,-1.92 -0.73,-2.79 -0.34,-0.87 -0.75,-1.64 -1.21,-2.32 -0.45,-0.68 -0.95,-1.27 -1.51,-1.79 -0.56,-0.53 -1.18,-0.99 -1.85,-1.4 -0.67,-0.42 -1.39,-0.78 -2.14,-1.08 -0.74,-0.3 -1.52,-0.54 -2.25,-0.7 -0.73,-0.15 -1.41,-0.22 -2.12,-0.3 -0.7,-0.07 -1.43,-0.16 -1.91,-0.32z"/>
 </g>
</svg>
